<svg width="211" height="200" viewBox="0 0 211 200" fill="none" xmlns="http://www.w3.org/2000/svg">
<g clip-path="url(#clip0_356_993)">
<path d="M67.4157 95.1312H17.4782C7.99001 95.1312 0 87.1412 0 77.653V27.7155C0 18.2273 7.99001 10.2373 17.4782 10.2373H67.4157C76.9039 10.2373 84.8939 18.2273 84.8939 27.7155V77.653C84.8939 87.1412 76.9039 95.1312 67.4157 95.1312ZM17.4782 25.2186C15.98 25.2186 14.9813 26.2173 14.9813 27.7155V77.653C14.9813 79.1512 15.98 80.1499 17.4782 80.1499H67.4157C68.9139 80.1499 69.9126 79.1512 69.9126 77.653V27.7155C69.9126 26.2173 68.9139 25.2186 67.4157 25.2186H17.4782V25.2186Z" fill="#FD9500" fill-opacity="0.9"/>
<path d="M147.316 105.618C142.822 105.618 138.327 104.12 134.832 100.624L99.8753 65.1685C92.884 58.1773 92.884 47.191 99.8753 40.1998L134.832 5.24345C141.823 -1.74782 152.809 -1.74782 159.8 5.24345L194.757 40.1998C201.748 47.191 201.748 58.1773 194.757 65.1685L159.8 100.125C156.305 103.62 151.81 105.618 147.316 105.618ZM147.316 14.7316C146.817 14.7316 145.818 14.7316 145.318 15.231L109.863 50.6866C108.864 51.6854 108.864 53.1835 109.863 54.1823L145.318 89.638C146.317 90.6367 147.815 90.6367 148.814 89.638L184.27 54.1823C185.269 53.1835 185.269 51.6854 184.27 50.6866L148.814 15.231C148.814 15.231 147.815 14.7316 147.316 14.7316V14.7316Z" fill="#FD9500" fill-opacity="0.38"/>
<path d="M67.4157 200H17.4782C7.99001 200 0 192.01 0 182.522V132.584C0 123.096 7.99001 115.106 17.4782 115.106H67.4157C76.9039 115.106 84.8939 123.096 84.8939 132.584V182.522C84.8939 192.01 76.9039 200 67.4157 200ZM17.4782 130.087C15.98 130.087 14.9813 131.086 14.9813 132.584V182.522C14.9813 184.02 15.98 185.019 17.4782 185.019H67.4157C68.9139 185.019 69.9126 184.02 69.9126 182.522V132.584C69.9126 131.086 68.9139 130.087 67.4157 130.087H17.4782ZM172.285 200H122.347C112.859 200 104.869 192.01 104.869 182.522V132.584C104.869 123.096 112.859 115.106 122.347 115.106H172.784C182.272 115.106 190.262 123.096 190.262 132.584V183.021C189.763 192.01 181.773 200 172.285 200V200ZM122.347 130.087C121.348 130.087 119.85 131.086 119.85 132.584V183.021C119.85 184.02 120.849 185.518 122.347 185.518H172.784C173.783 185.518 175.281 184.519 175.281 183.021V132.584C175.281 131.586 174.282 130.087 172.784 130.087H122.347V130.087Z" fill="#FD9500" fill-opacity="0.9"/>
</g>
<defs>
<clipPath id="clip0_356_993">
<rect width="210.742" height="200" fill="white"/>
</clipPath>
</defs>
</svg>
