<svg width="200" height="200" viewBox="0 0 200 200" fill="none" xmlns="http://www.w3.org/2000/svg">
<path d="M100 0C166.667 0 200 33.3333 200 100C200 166.667 166.667 200 100 200C33.3333 200 0 166.667 0 100C0 33.3333 33.3333 0 100 0Z" fill="#FD9500" fill-opacity="0.9"/>
<path d="M50.9092 121.269C50.8745 123.198 50.0749 125.034 48.6865 126.373C47.298 127.713 45.4344 128.446 43.5055 128.411C41.5767 128.376 39.7406 127.577 38.4013 126.188C37.0619 124.8 36.329 122.936 36.3637 121.007L36.9819 86.7345C37.1535 77.2054 41.0592 68.1245 47.8587 61.4461C54.6581 54.7678 63.8076 51.0258 73.3383 51.0254H132.618C133.573 51.0254 134.519 51.2135 135.401 51.579C136.284 51.9445 137.086 52.4802 137.761 53.1555C138.436 53.8309 138.972 54.6326 139.337 55.515C139.703 56.3973 139.891 57.343 139.891 58.2981C139.891 59.2532 139.703 60.1989 139.337 61.0813C138.972 61.9636 138.436 62.7654 137.761 63.4407C137.086 64.116 136.284 64.6518 135.401 65.0172C134.519 65.3827 133.573 65.5708 132.618 65.5708H73.3383C67.6191 65.5699 62.1283 67.8146 58.0477 71.8218C53.9671 75.8289 51.623 81.2781 51.5201 86.9963L50.9092 121.269Z" fill="white"/>
<path d="M136.222 50.3528C136.798 50.7787 137.284 51.3139 137.653 51.9279C138.022 52.5418 138.267 53.2224 138.373 53.9308C138.479 54.6392 138.444 55.3616 138.271 56.0567C138.098 56.7518 137.79 57.4059 137.364 57.9818C136.938 58.5577 136.402 59.0441 135.789 59.4132C135.175 59.7822 134.494 60.0268 133.786 60.1328C133.077 60.2388 132.355 60.2043 131.66 60.0311C130.965 59.858 130.31 59.5496 129.735 59.1237L105.742 41.3746C104.579 40.5143 103.805 39.2272 103.591 37.7965C103.377 36.3658 103.74 34.9086 104.6 33.7455C105.46 32.5824 106.747 31.8087 108.178 31.5945C109.609 31.3804 111.066 31.7434 112.229 32.6037L136.222 50.3528Z" fill="white"/>
<path d="M131.949 54.1709C132.504 53.7175 133.142 53.3777 133.828 53.1711C134.514 52.9644 135.234 52.8949 135.947 52.9665C136.66 53.0381 137.351 53.2494 137.983 53.5883C138.614 53.9272 139.172 54.3871 139.625 54.9418C140.079 55.4964 140.419 56.135 140.625 56.8209C140.832 57.5069 140.901 58.2268 140.83 58.9396C140.758 59.6525 140.547 60.3442 140.208 60.9754C139.869 61.6065 139.409 62.1647 138.854 62.6182L111.044 85.3454C109.921 86.2404 108.491 86.6569 107.064 86.5046C105.637 86.3523 104.327 85.6436 103.419 84.532C102.511 83.4204 102.077 81.9956 102.213 80.5666C102.348 79.1376 103.041 77.8195 104.142 76.8982L131.949 54.1709Z" fill="white"/>
<path d="M156.364 78.7309C156.398 76.802 157.198 74.966 158.586 73.6266C159.975 72.2873 161.838 71.5544 163.767 71.5891C165.696 71.6238 167.532 72.4233 168.872 73.8118C170.211 75.2002 170.944 77.0639 170.909 78.9927L170.291 113.265C170.119 122.795 166.214 131.875 159.414 138.554C152.615 145.232 143.465 148.974 133.935 148.975H74.6546C72.7257 148.975 70.8759 148.208 69.512 146.844C68.1481 145.48 67.3818 143.631 67.3818 141.702C67.3818 139.773 68.1481 137.923 69.512 136.559C70.8759 135.195 72.7257 134.429 74.6546 134.429H133.938C139.657 134.43 145.148 132.185 149.229 128.178C153.309 124.171 155.653 118.722 155.756 113.004L156.364 78.7309Z" fill="white"/>
<path d="M71.0509 149.647C70.475 149.221 69.9886 148.686 69.6195 148.072C69.2505 147.458 69.006 146.778 68.8999 146.069C68.7939 145.361 68.8284 144.638 69.0016 143.943C69.1747 143.248 69.4831 142.594 69.9091 142.018C70.335 141.442 70.8702 140.956 71.4842 140.587C72.0981 140.218 72.7787 139.973 73.4871 139.867C74.1955 139.761 74.9179 139.796 75.613 139.969C76.3081 140.142 76.9622 140.45 77.5381 140.876L101.531 158.625C102.107 159.051 102.593 159.587 102.962 160.201C103.331 160.814 103.576 161.495 103.682 162.204C103.788 162.912 103.753 163.634 103.58 164.329C103.407 165.024 103.099 165.679 102.673 166.255C102.247 166.83 101.712 167.317 101.098 167.686C100.484 168.055 99.803 168.299 99.0946 168.405C98.3862 168.511 97.6638 168.477 96.9687 168.304C96.2737 168.131 95.6195 167.822 95.0436 167.396L71.0509 149.647Z" fill="white"/>
<path d="M75.3236 145.829C74.7689 146.283 74.1304 146.622 73.4444 146.829C72.7585 147.036 72.0385 147.105 71.3257 147.033C70.6129 146.962 69.9212 146.751 69.29 146.412C68.6588 146.073 68.1006 145.613 67.6472 145.058C67.1938 144.504 66.8541 143.865 66.6474 143.179C66.4408 142.493 66.3712 141.773 66.4428 141.06C66.5144 140.348 66.7257 139.656 67.0646 139.025C67.4035 138.393 67.8635 137.835 68.4181 137.382L96.229 114.655C97.3513 113.76 98.7811 113.343 100.208 113.495C101.636 113.648 102.946 114.356 103.854 115.468C104.762 116.58 105.195 118.004 105.06 119.433C104.925 120.862 104.232 122.181 103.131 123.102L75.3236 145.829Z" fill="white"/>
</svg>
