<svg width="60" height="60" viewBox="0 0 60 60" fill="none" xmlns="http://www.w3.org/2000/svg">
<path d="M52.9834 15.4295C52.9842 15.0023 52.869 14.5835 52.6512 14.222C52.4334 13.8605 52.1219 13.571 51.7529 13.3873C51.384 13.2035 50.9727 13.1331 50.5669 13.184C50.1612 13.235 49.7776 13.4053 49.4608 13.6752C49.1439 13.9451 48.9069 14.3035 48.7772 14.7086C48.6475 15.1138 48.6304 15.5491 48.728 15.964C48.8257 16.3789 49.0339 16.7563 49.3286 17.0524C49.6233 17.3484 49.9923 17.551 50.3927 17.6364L38.0629 28.4703L31.1543 12.8088C31.827 12.6272 32.4133 12.1954 32.8033 11.5942C33.1932 10.993 33.36 10.2638 33.2725 9.54322C33.185 8.82265 32.849 8.16019 32.3277 7.68002C31.8064 7.19985 31.1355 6.93494 30.4407 6.93494C29.7459 6.93494 29.075 7.19985 28.5536 7.68002C28.0323 8.16019 27.6964 8.82265 27.6089 9.54322C27.5213 10.2638 27.6881 10.993 28.0781 11.5942C28.468 12.1954 29.0543 12.6272 29.727 12.8088L22.8065 28.4703L10.4767 17.6364C10.9878 17.5374 11.4476 17.2488 11.7716 16.8238C12.0956 16.3988 12.262 15.8659 12.2403 15.3228C12.2186 14.7798 12.0102 14.2633 11.6534 13.868C11.2966 13.4728 10.8153 13.2254 10.2981 13.1713C9.78079 13.1172 9.26223 13.2601 8.83763 13.5736C8.41304 13.8872 8.11092 14.3504 7.98678 14.8782C7.86264 15.4059 7.92482 15.9628 8.16189 16.4465C8.39896 16.9301 8.795 17.3081 9.27726 17.511L18.4047 48.859H42.5126L51.6401 17.511C52.036 17.3421 52.375 17.0542 52.6142 16.6836C52.8533 16.313 52.9818 15.8765 52.9834 15.4295Z" fill="#FFCD30"/>
<path d="M50.8247 17.5487H50.5368L38.063 28.4954L31.1305 12.7587C30.9309 12.8144 30.7254 12.8439 30.5188 12.8465C30.2662 12.8459 30.0152 12.8035 29.7752 12.7211L22.8187 28.4703L10.4049 17.5737C10.2374 17.5909 10.0686 17.5909 9.90113 17.5737C9.67784 17.5726 9.45581 17.5388 9.24146 17.4734L10.6088 22.1505L25.2055 35.3919L30.4349 19.3668L36.8636 35.3919L50.225 22.3637L51.6762 17.348C51.4065 17.4688 51.1179 17.5368 50.8247 17.5487V17.5487Z" fill="#FFFA39"/>
</svg>
