<?xml version="1.0" encoding="UTF-8"?>
<!--Generator: Apple Native CoreSVG 175-->
<!DOCTYPE svg
PUBLIC "-//W3C//DTD SVG 1.1//EN"
       "http://www.w3.org/Graphics/SVG/1.1/DTD/svg11.dtd">
<svg version="1.1" xmlns="http://www.w3.org/2000/svg" xmlns:xlink="http://www.w3.org/1999/xlink" width="33.5781" height="26.9473" viewBox="0 0 33.5781 26.9473" fill="rgba(0,0,0,0.85)">
 <g>
  <rect height="26.9473" opacity="0" width="33.5781" x="0" y="0"/>
  <path d="M4.29297 26.0723L29.2852 26.0723Q31.418 26.0723 32.498 25.0127Q33.5781 23.9531 33.5781 21.834L33.5781 7.51953Q33.5781 5.41406 32.498 4.35449Q31.418 3.29492 29.2852 3.29492L25.375 3.29492Q24.8281 3.29492 24.5 3.21289Q24.1719 3.13086 23.9189 2.93262Q23.666 2.73438 23.3516 2.39258L22.2578 1.16211Q21.752 0.601562 21.1367 0.300781Q20.5215 0 19.4688 0L14.0137 0Q12.9609 0 12.3525 0.300781Q11.7441 0.601562 11.2246 1.16211L10.1309 2.39258Q9.67969 2.89844 9.29688 3.09668Q8.91406 3.29492 8.10742 3.29492L4.29297 3.29492Q2.14648 3.29492 1.07324 4.35449Q0 5.41406 0 7.51953L0 21.834Q0 23.9531 1.07324 25.0127Q2.14648 26.0723 4.29297 26.0723ZM4.32031 23.8711Q3.30859 23.8711 2.75488 23.3311Q2.20117 22.791 2.20117 21.7246L2.20117 7.64258Q2.20117 6.57617 2.75488 6.03613Q3.30859 5.49609 4.32031 5.49609L8.6543 5.49609Q9.58398 5.49609 10.1514 5.28418Q10.7188 5.07227 11.2383 4.49805L12.3047 3.29492Q12.8926 2.63867 13.3438 2.41992Q13.7949 2.20117 14.6973 2.20117L18.7852 2.20117Q19.6875 2.20117 20.1387 2.41992Q20.5898 2.63867 21.1777 3.29492L22.2441 4.49805Q22.7637 5.07227 23.3311 5.28418Q23.8984 5.49609 24.8281 5.49609L29.2441 5.49609Q30.2559 5.49609 30.8164 6.03613Q31.377 6.57617 31.377 7.64258L31.377 21.7246Q31.377 22.791 30.8164 23.3311Q30.2559 23.8711 29.2441 23.8711ZM16.7891 21.9023Q18.334 21.9023 19.6875 21.3281Q21.041 20.7539 22.0664 19.7285Q23.0918 18.7031 23.666 17.3496Q24.2402 15.9961 24.2402 14.4238Q24.2402 12.3457 23.2422 10.6504Q22.2441 8.95508 20.5488 7.95703Q18.8535 6.95898 16.7891 6.95898Q15.2305 6.95898 13.877 7.5332Q12.5234 8.10742 11.5049 9.13281Q10.4863 10.1582 9.90527 11.5117Q9.32422 12.8652 9.32422 14.4238Q9.32422 15.9961 9.90527 17.3496Q10.4863 18.7031 11.5049 19.7285Q12.5234 20.7539 13.877 21.3281Q15.2305 21.9023 16.7891 21.9023ZM16.7891 19.8242Q15.2988 19.8242 14.0752 19.0996Q12.8516 18.375 12.1201 17.1514Q11.3887 15.9277 11.3887 14.4238Q11.3887 12.9336 12.1201 11.71Q12.8516 10.4863 14.0752 9.75488Q15.2988 9.02344 16.7891 9.02344Q18.2793 9.02344 19.5029 9.75488Q20.7266 10.4863 21.4512 11.71Q22.1758 12.9336 22.1758 14.4238Q22.1758 15.9277 21.4512 17.1514Q20.7266 18.375 19.5029 19.0996Q18.2793 19.8242 16.7891 19.8242ZM24.8008 9.39258Q24.8008 10.1172 25.3066 10.6094Q25.8125 11.1016 26.5234 11.0879Q27.207 11.0879 27.7129 10.5957Q28.2188 10.1035 28.2188 9.39258Q28.2188 8.70898 27.7129 8.20312Q27.207 7.69727 26.5234 7.69727Q25.8125 7.69727 25.3066 8.20312Q24.8008 8.70898 24.8008 9.39258Z" />
 </g>
</svg>
