<?xml version="1.0" encoding="UTF-8"?>
<!--Generator: Apple Native CoreSVG 175-->
<!DOCTYPE svg
PUBLIC "-//W3C//DTD SVG 1.1//EN"
       "http://www.w3.org/Graphics/SVG/1.1/DTD/svg11.dtd">
<svg version="1.1" xmlns="http://www.w3.org/2000/svg" xmlns:xlink="http://www.w3.org/1999/xlink" width="17.59" height="17.5406" viewBox="0 0 17.59 17.5406" fill="rgba(0,0,0,0.85)">
 <g>
  <rect height="17.5406" opacity="0" width="17.59" x="0" y="0"/>
  <path d="M6.78635 17.5406Q7.65671 17.5406 8.12683 16.8353L17.2684 2.69547Q17.4356 2.43759 17.5128 2.20146Q17.59 1.96533 17.59 1.73676Q17.59 1.15616 17.2077 0.783157Q16.8254 0.410156 16.2357 0.410156Q15.8215 0.410156 15.546 0.572205Q15.2704 0.734253 15.0169 1.12564L6.74728 14.2307L2.51022 8.86368Q2.05002 8.28583 1.37848 8.28583Q0.778809 8.28583 0.389404 8.66882Q0 9.05182 0 9.63547Q0 9.89502 0.091629 10.1394Q0.183258 10.3838 0.404358 10.6403L5.45715 16.8748Q6.0022 17.5406 6.78635 17.5406Z"/>
 </g>
</svg>
