<?xml version="1.0" encoding="UTF-8"?>
<!--Generator: Apple Native CoreSVG 175-->
<!DOCTYPE svg
PUBLIC "-//W3C//DTD SVG 1.1//EN"
       "http://www.w3.org/Graphics/SVG/1.1/DTD/svg11.dtd">
<svg version="1.1"
       xmlns="http://www.w3.org/2000/svg"
       xmlns:xlink="http://www.w3.org/1999/xlink" width="27.8906" height="27.9043" viewBox="0 0 27.8906 27.9043" fill="rgba(0,0,0,0.85)">
       <g>
              <rect height="27.9043" opacity="0" width="27.8906" x="0" y="0"/>
              <path d="M13.9453 27.8906Q16.8027 27.8906 19.3252 26.7969Q21.8477 25.7031 23.7754 23.7754Q25.7031 21.8477 26.7969 19.3252Q27.8906 16.8027 27.8906 13.9453Q27.8906 11.0879 26.7969 8.56543Q25.7031 6.04297 23.7754 4.11523Q21.8477 2.1875 19.3184 1.09375Q16.7891 0 13.9316 0Q11.0742 0 8.55176 1.09375Q6.0293 2.1875 4.1084 4.11523Q2.1875 6.04297 1.09375 8.56543Q0 11.0879 0 13.9453Q0 16.8027 1.09375 19.3252Q2.1875 21.8477 4.11523 23.7754Q6.04297 25.7031 8.56543 26.7969Q11.0879 27.8906 13.9453 27.8906ZM12.4141 20.6172Q12.0586 20.6172 11.7715 20.4668Q11.4844 20.3164 11.2109 19.9609L7.7793 15.75Q7.62891 15.5449 7.54004 15.3193Q7.45117 15.0938 7.45117 14.8613Q7.45117 14.3965 7.76562 14.0615Q8.08008 13.7266 8.54492 13.7266Q8.8457 13.7266 9.08496 13.8496Q9.32422 13.9727 9.58398 14.3145L12.3594 17.8965L18.1973 8.51758Q18.5801 7.88867 19.1816 7.88867Q19.6191 7.88867 19.9746 8.16895Q20.3301 8.44922 20.3301 8.92773Q20.3301 9.16016 20.2207 9.39258Q20.1113 9.625 19.9883 9.83008L13.5625 19.9609Q13.3438 20.2891 13.0566 20.4531Q12.7695 20.6172 12.4141 20.6172Z" />
       </g>
</svg>
