<?xml version="1.0" encoding="UTF-8"?>
<!--Generator: Apple Native CoreSVG 175-->
<!DOCTYPE svg
PUBLIC "-//W3C//DTD SVG 1.1//EN"
       "http://www.w3.org/Graphics/SVG/1.1/DTD/svg11.dtd">
<svg version="1.1" xmlns="http://www.w3.org/2000/svg" xmlns:xlink="http://www.w3.org/1999/xlink" width="10.2278" height="17.5528" viewBox="0 0 10.2278 17.5528" fill="rgba(0,0,0,0.85)">
 <g>
  <rect height="17.5528" opacity="0" width="10.2278" x="0" y="0"/>
  <path d="M10.2278 8.77151Q10.2246 8.47107 10.1095 8.21678Q9.99435 7.96249 9.7551 7.72644L2.24747 0.371857Q1.8689 0 1.32034 0Q0.961304 0 0.658417 0.176163Q0.35553 0.352325 0.177765 0.648804Q0 0.945282 0 1.31088Q0 1.85547 0.412292 2.26868L7.0932 8.76846L0.412292 15.2744Q0 15.6938 0 16.2352Q0 16.601 0.177765 16.8974Q0.35553 17.1938 0.658417 17.37Q0.961304 17.5462 1.32034 17.5462Q1.8689 17.5462 2.24747 17.1677L9.7551 9.81659Q9.99741 9.58054 10.1126 9.32472Q10.2278 9.06891 10.2278 8.77151Z"/>
 </g>
</svg>
