<?xml version="1.0" encoding="UTF-8"?>
<!--Generator: Apple Native CoreSVG 175-->
<!DOCTYPE svg
PUBLIC "-//W3C//DTD SVG 1.1//EN"
       "http://www.w3.org/Graphics/SVG/1.1/DTD/svg11.dtd">
<svg version="1.1"
       xmlns="http://www.w3.org/2000/svg"
       xmlns:xlink="http://www.w3.org/1999/xlink" width="23.748" height="14.4785" viewBox="0 0 23.748 14.4785" fill="rgba(0,0,0,0.85)">
       <g>
              <rect height="14.4785" opacity="0" width="23.748" x="0" y="0"/>
              <path d="M0.369141 11.2383Q0.191406 11.4023 0.0957031 11.6348Q0 11.8672 0 12.127Q0 12.4824 0.164062 12.7627Q0.328125 13.043 0.608398 13.207Q0.888672 13.3711 1.24414 13.3711Q1.80469 13.3711 2.13281 13.0156L12.6055 2.32422L11.1426 2.32422L21.6152 13.0156Q21.957 13.3711 22.5039 13.3711Q22.8594 13.3711 23.1396 13.207Q23.4199 13.043 23.584 12.7627Q23.748 12.4824 23.748 12.127Q23.748 11.5938 23.3789 11.2383L12.7969 0.410156Q12.6191 0.21875 12.3799 0.109375Q12.1406 0 11.8809 0Q11.334 0 10.9512 0.410156Z" />
       </g>
</svg>
