<?xml version="1.0" encoding="UTF-8"?>
<!--Generator: Apple Native CoreSVG 175-->
<!DOCTYPE svg
PUBLIC "-//W3C//DTD SVG 1.1//EN"
       "http://www.w3.org/Graphics/SVG/1.1/DTD/svg11.dtd">
<svg version="1.1"
       xmlns="http://www.w3.org/2000/svg"
       xmlns:xlink="http://www.w3.org/1999/xlink" width="23.748" height="14.5605" viewBox="0 0 23.748 14.5605" fill="rgba(0,0,0,0.85)">
       <g>
              <rect height="14.5605" opacity="0" width="23.748" x="0" y="0"/>
              <path d="M11.8809 14.5605Q12.1406 14.5605 12.3799 14.458Q12.6191 14.3555 12.7969 14.1641L23.3789 3.32227Q23.748 2.95312 23.748 2.44727Q23.748 2.0918 23.584 1.80469Q23.4199 1.51758 23.1396 1.35352Q22.8594 1.18945 22.5039 1.18945Q21.998 1.18945 21.6152 1.54492L11.1426 12.25L12.6055 12.25L2.13281 1.54492Q1.76367 1.18945 1.24414 1.18945Q0.888672 1.18945 0.608398 1.35352Q0.328125 1.51758 0.164062 1.80469Q0 2.0918 0 2.44727Q0 2.70703 0.0957031 2.93262Q0.191406 3.1582 0.369141 3.33594L10.9512 14.1641Q11.3613 14.5605 11.8809 14.5605Z"/>
       </g>
</svg>
