<?xml version="1.0" encoding="UTF-8"?>
<!--Generator: Apple Native CoreSVG 175-->
<!DOCTYPE svg
PUBLIC "-//W3C//DTD SVG 1.1//EN"
       "http://www.w3.org/Graphics/SVG/1.1/DTD/svg11.dtd">
<svg version="1.1" xmlns="http://www.w3.org/2000/svg" xmlns:xlink="http://www.w3.org/1999/xlink" width="29.627" height="25.1973" viewBox="0 0 29.627 25.1973" fill="rgba(0,0,0,0.85)">
 <g>
  <rect height="25.1973" opacity="0" width="29.627" x="0" y="0"/>
  <path d="M25.334 25.1973Q27.4805 25.1973 28.5537 24.1377Q29.627 23.0781 29.627 20.959L29.627 4.26562Q29.627 2.14648 28.5537 1.08691Q27.4805 0.0273438 25.334 0.0273438L13.4531 0.0273438Q12.6465 0.0273438 11.9287 0.177734Q11.2109 0.328125 10.5615 0.683594Q9.91211 1.03906 9.35156 1.62695L1.29883 9.99414Q0.847656 10.4453 0.560547 10.8828Q0.273438 11.3203 0.136719 11.7373Q0 12.1543 0 12.5918Q0 13.2207 0.314453 13.8564Q0.628906 14.4922 1.29883 15.1895L9.36523 23.5156Q9.92578 24.1035 10.5752 24.4727Q11.2246 24.8418 11.9424 25.0127Q12.6602 25.1836 13.4668 25.1836ZM25.3066 22.9961L13.4258 22.9961Q12.6465 22.9961 12.0996 22.7773Q11.5527 22.5586 11.0195 22.0117L3.00781 13.7402Q2.66602 13.3848 2.53613 13.1182Q2.40625 12.8516 2.40625 12.5918Q2.40625 12.0859 3.00781 11.4297L11.0059 3.13086Q11.5391 2.58398 12.0928 2.40625Q12.6465 2.22852 13.4121 2.22852L25.3066 2.22852Q26.332 2.22852 26.8789 2.76855Q27.4258 3.30859 27.4258 4.375L27.4258 20.8496Q27.4258 21.916 26.8789 22.4561Q26.332 22.9961 25.3066 22.9961ZM12.6602 18.3887Q13.1387 18.3887 13.4531 18.0469L17.3223 14.1641L21.2188 18.0469Q21.5469 18.3887 21.998 18.3887Q22.4492 18.3887 22.7705 18.0605Q23.0918 17.7324 23.0918 17.2812Q23.0918 16.8301 22.7637 16.502L18.8809 12.6191L22.7773 8.70898Q23.1055 8.38086 23.1055 7.94336Q23.1055 7.49219 22.7842 7.1709Q22.4629 6.84961 22.0117 6.84961Q21.5879 6.84961 21.2598 7.19141L17.3223 11.0879L13.4258 7.20508Q13.125 6.87695 12.6602 6.87695Q12.209 6.87695 11.8877 7.19141Q11.5664 7.50586 11.5664 7.95703Q11.5664 8.4082 11.8945 8.72266L15.7773 12.6191L11.8945 16.5156Q11.5664 16.8301 11.5664 17.2812Q11.5664 17.7324 11.8877 18.0605Q12.209 18.3887 12.6602 18.3887Z" />
 </g>
</svg>
