<?xml version="1.0" encoding="UTF-8"?>
<!--Generator: Apple Native CoreSVG 175-->
<!DOCTYPE svg
PUBLIC "-//W3C//DTD SVG 1.1//EN"
       "http://www.w3.org/Graphics/SVG/1.1/DTD/svg11.dtd">
<svg version="1.1"
       xmlns="http://www.w3.org/2000/svg"
       xmlns:xlink="http://www.w3.org/1999/xlink" width="27.8906" height="27.9043" viewBox="0 0 27.8906 27.9043" fill="rgba(0,0,0,0.85)">
       <g>
              <rect height="27.9043" opacity="0" width="27.8906" x="0" y="0"/>
              <path d="M13.9453 27.8906Q16.8027 27.8906 19.3252 26.7969Q21.8477 25.7031 23.7754 23.7754Q25.7031 21.8477 26.7969 19.3252Q27.8906 16.8027 27.8906 13.9453Q27.8906 11.0879 26.7969 8.56543Q25.7031 6.04297 23.7754 4.11523Q21.8477 2.1875 19.3184 1.09375Q16.7891 0 13.9316 0Q11.0742 0 8.55176 1.09375Q6.0293 2.1875 4.1084 4.11523Q2.1875 6.04297 1.09375 8.56543Q0 11.0879 0 13.9453Q0 16.8027 1.09375 19.3252Q2.1875 21.8477 4.11523 23.7754Q6.04297 25.7031 8.56543 26.7969Q11.0879 27.8906 13.9453 27.8906ZM13.9453 25.5664Q11.5254 25.5664 9.41992 24.6641Q7.31445 23.7617 5.72168 22.1689Q4.12891 20.5762 3.2334 18.4707Q2.33789 16.3652 2.33789 13.9453Q2.33789 11.5254 3.2334 9.41992Q4.12891 7.31445 5.71484 5.71484Q7.30078 4.11523 9.40625 3.21973Q11.5117 2.32422 13.9316 2.32422Q16.3516 2.32422 18.457 3.21973Q20.5625 4.11523 22.1621 5.71484Q23.7617 7.31445 24.6641 9.41992Q25.5664 11.5254 25.5664 13.9453Q25.5664 16.3652 24.6709 18.4707Q23.7754 20.5762 22.1826 22.1689Q20.5898 23.7617 18.4775 24.6641Q16.3652 25.5664 13.9453 25.5664ZM7.56055 15.9277Q8.38086 15.9277 8.96191 15.3398Q9.54297 14.752 9.54297 13.9316Q9.54297 13.1113 8.95508 12.5234Q8.36719 11.9355 7.56055 11.9355Q6.72656 11.9355 6.14551 12.5234Q5.56445 13.1113 5.56445 13.9316Q5.56445 14.752 6.14551 15.3398Q6.72656 15.9277 7.56055 15.9277ZM13.9316 15.9277Q14.752 15.9277 15.3398 15.3398Q15.9277 14.752 15.9277 13.9316Q15.9277 13.1113 15.3398 12.5234Q14.752 11.9355 13.9316 11.9355Q13.1113 11.9355 12.5303 12.5234Q11.9492 13.1113 11.9492 13.9316Q11.9492 14.752 12.5303 15.3398Q13.1113 15.9277 13.9316 15.9277ZM20.3164 15.9277Q21.1367 15.9277 21.7178 15.3398Q22.2988 14.752 22.2988 13.9316Q22.2988 13.1113 21.7178 12.5234Q21.1367 11.9355 20.3164 11.9355Q19.4961 11.9355 18.9082 12.5234Q18.3203 13.1113 18.3203 13.9316Q18.3203 14.752 18.9082 15.3398Q19.4961 15.9277 20.3164 15.9277Z" />
       </g>
</svg>
