<?xml version="1.0" encoding="UTF-8"?>
<!--Generator: Apple Native CoreSVG 175-->
<!DOCTYPE svg
PUBLIC "-//W3C//DTD SVG 1.1//EN"
       "http://www.w3.org/Graphics/SVG/1.1/DTD/svg11.dtd">
<svg version="1.1" xmlns="http://www.w3.org/2000/svg" xmlns:xlink="http://www.w3.org/1999/xlink" width="26.7695" height="26.7832" viewBox="0 0 26.7695 26.7832" fill="rgba(0,0,0,0.85)" >
 <g>
  <rect height="26.7832" opacity="0" width="26.7695" x="0" y="0"/>
  <path d="M1.09375 8.72266Q2.20117 8.72266 2.20117 7.60156L2.20117 4.375Q2.20117 3.30859 2.74805 2.76855Q3.29492 2.22852 4.32031 2.22852L7.62891 2.22852Q8.75 2.22852 8.75 1.12109Q8.75 0.0273438 7.62891 0.0273438L4.29297 0.0273438Q2.14648 0.0273438 1.07324 1.08691Q0 2.14648 0 4.25195L0 7.60156Q0 8.72266 1.09375 8.72266ZM25.6621 8.72266Q26.7695 8.72266 26.7695 7.60156L26.7695 4.25195Q26.7695 2.14648 25.6963 1.08691Q24.623 0.0273438 22.4766 0.0273438L19.127 0.0273438Q18.0195 0.0273438 18.0195 1.12109Q18.0195 2.22852 19.127 2.22852L22.4355 2.22852Q23.4473 2.22852 24.0078 2.76855Q24.5684 3.30859 24.5684 4.375L24.5684 7.60156Q24.5684 8.72266 25.6621 8.72266ZM4.29297 26.7832L7.62891 26.7832Q8.75 26.7832 8.75 25.6895Q8.75 24.582 7.62891 24.582L4.32031 24.582Q3.29492 24.582 2.74805 24.042Q2.20117 23.502 2.20117 22.4355L2.20117 19.209Q2.20117 18.0879 1.09375 18.0879Q0 18.0879 0 19.209L0 22.5449Q0 24.6641 1.07324 25.7236Q2.14648 26.7832 4.29297 26.7832ZM19.127 26.7832L22.4766 26.7832Q24.623 26.7832 25.6963 25.7236Q26.7695 24.6641 26.7695 22.5449L26.7695 19.209Q26.7695 18.0879 25.6621 18.0879Q24.5684 18.0879 24.5684 19.209L24.5684 22.4355Q24.5684 23.502 24.0078 24.042Q23.4473 24.582 22.4355 24.582L19.127 24.582Q18.0195 24.582 18.0195 25.6895Q18.0195 26.7832 19.127 26.7832ZM8.17578 12.4824Q8.6543 12.4824 8.96191 12.1748Q9.26953 11.8672 9.26953 11.375L9.26953 9.51562Q9.26953 9.02344 8.96191 8.71582Q8.6543 8.4082 8.17578 8.4082Q7.69727 8.4082 7.38965 8.71582Q7.08203 9.02344 7.08203 9.51562L7.08203 11.375Q7.08203 11.8672 7.38965 12.1748Q7.69727 12.4824 8.17578 12.4824ZM12.2773 15.709Q12.3047 15.709 12.3389 15.709Q12.373 15.709 12.4004 15.709Q13.4395 15.709 13.9863 15.1621Q14.5332 14.6152 14.5332 13.5762L14.5332 9.26953Q14.5332 8.87305 14.2939 8.63379Q14.0547 8.39453 13.6445 8.39453Q13.248 8.39453 13.002 8.63379Q12.7559 8.87305 12.7559 9.26953L12.7559 13.6992Q12.7559 13.8086 12.7012 13.8564Q12.6465 13.9043 12.5508 13.9043L12.0723 13.9043Q11.7031 13.9043 11.4502 14.1572Q11.1973 14.4102 11.1973 14.7793Q11.1973 15.2168 11.4844 15.4629Q11.7715 15.709 12.2773 15.709ZM18.5391 12.4824Q19.0176 12.4824 19.3252 12.1748Q19.6328 11.8672 19.6328 11.375L19.6328 9.51562Q19.6328 9.02344 19.3252 8.71582Q19.0176 8.4082 18.5391 8.4082Q18.0605 8.4082 17.7529 8.71582Q17.4453 9.02344 17.4453 9.51562L17.4453 11.375Q17.4453 11.8672 17.7529 12.1748Q18.0605 12.4824 18.5391 12.4824ZM13.3027 20.3027Q14.5332 20.3027 15.7227 19.8037Q16.9121 19.3047 17.8145 18.4023Q17.9375 18.2793 17.999 18.1152Q18.0605 17.9512 18.0605 17.7461Q18.0605 17.3633 17.8008 17.1104Q17.541 16.8574 17.1719 16.8574Q16.8027 16.8574 16.4609 17.2266Q15.9004 17.8145 15.0596 18.1768Q14.2188 18.5391 13.3027 18.5391Q12.4414 18.5391 11.5938 18.1836Q10.7461 17.8281 10.1582 17.2266Q9.99414 17.0762 9.83691 16.9668Q9.67969 16.8574 9.43359 16.8574Q9.05078 16.8574 8.79102 17.1104Q8.53125 17.3633 8.53125 17.7461Q8.53125 17.9238 8.59961 18.0811Q8.66797 18.2383 8.80469 18.3887Q9.625 19.332 10.8418 19.8174Q12.0586 20.3027 13.3027 20.3027Z" />
 </g>
</svg>
