<?xml version="1.0" encoding="UTF-8"?>
<!--Generator: Apple Native CoreSVG 175-->
<!DOCTYPE svg
PUBLIC "-//W3C//DTD SVG 1.1//EN"
       "http://www.w3.org/Graphics/SVG/1.1/DTD/svg11.dtd">
<svg version="1.1" xmlns="http://www.w3.org/2000/svg" xmlns:xlink="http://www.w3.org/1999/xlink" width="31.0488" height="25.1973" viewBox="0 0 31.0488 25.1973" fill="rgba(0,0,0,0.85)">
 <g>
  <rect height="25.1973" opacity="0" width="31.0488" x="0" y="0"/>
  <path d="M4.29297 25.0195L27.166 25.0195Q28.998 25.0195 30.0234 23.96Q31.0488 22.9004 31.0488 20.7812L31.0488 6.74023Q31.0488 4.63477 29.9688 3.56836Q28.8887 2.50195 26.7559 2.50195L13.6309 2.50195Q12.9336 2.50195 12.4551 2.31738Q11.9766 2.13281 11.457 1.69531L10.623 1.01172Q10.1719 0.628906 9.75488 0.410156Q9.33789 0.191406 8.83887 0.0957031Q8.33984 0 7.66992 0L3.77344 0Q1.96875 0 0.984375 1.02539Q0 2.05078 0 4.11523L0 20.7812Q0 22.9004 1.07324 23.96Q2.14648 25.0195 4.29297 25.0195ZM4.32031 22.8184Q3.29492 22.8184 2.74805 22.2783Q2.20117 21.7383 2.20117 20.6719L2.20117 4.23828Q2.20117 3.22656 2.7207 2.70703Q3.24023 2.1875 4.22461 2.1875L7.10938 2.1875Q7.79297 2.1875 8.26465 2.37891Q8.73633 2.57031 9.25586 3.00781L10.0898 3.70508Q10.5273 4.07422 10.9512 4.29297Q11.375 4.51172 11.8809 4.60742Q12.3867 4.70312 13.0566 4.70312L26.7148 4.70312Q27.7266 4.70312 28.2871 5.25Q28.8477 5.79688 28.8477 6.86328L28.8477 20.6855Q28.8477 21.7383 28.2871 22.2783Q27.7266 22.8184 26.7148 22.8184ZM1.33984 9.70703L29.6953 9.70703L29.6953 7.64258L1.33984 7.64258Z" />
 </g>
</svg>
