<?xml version="1.0" standalone="no"?><!DOCTYPE svg PUBLIC "-//W3C//DTD SVG 1.1//EN" "http://www.w3.org/Graphics/SVG/1.1/DTD/svg11.dtd"><svg t="1647956165273" class="icon" viewBox="0 0 1024 1024" version="1.1" xmlns="http://www.w3.org/2000/svg" p-id="6621" xmlns:xlink="http://www.w3.org/1999/xlink" width="200" height="200"><defs><style type="text/css"></style></defs><path d="M825.6 428.373333A319.573333 319.573333 0 0 0 512 170.666667C388.693333 170.666667 281.6 240.64 228.266667 343.04A255.744 255.744 0 0 0 0 597.333333c0 141.226667 114.773333 256 256 256h554.666667c117.76 0 213.333333-95.573333 213.333333-213.333333 0-112.64-87.466667-203.946667-198.4-211.626667zM810.666667 768H256c-94.293333 0-170.666667-76.373333-170.666667-170.666667s76.373333-170.666667 170.666667-170.666666h30.293333C314.453333 328.106667 404.48 256 512 256c129.706667 0 234.666667 104.96 234.666667 234.666667v21.333333H810.666667c70.826667 0 128 57.173333 128 128s-57.173333 128-128 128z" p-id="6622" fill="#EED198"></path></svg>