<?xml version="1.0" encoding="UTF-8"?>
<!--Generator: Apple Native CoreSVG 175-->
<!DOCTYPE svg
PUBLIC "-//W3C//DTD SVG 1.1//EN"
       "http://www.w3.org/Graphics/SVG/1.1/DTD/svg11.dtd">
<svg version="1.1"
       xmlns="http://www.w3.org/2000/svg"
       xmlns:xlink="http://www.w3.org/1999/xlink" width="27.5488" height="20.002" viewBox="0 0 27.5488 20.002" fill="rgba(0,0,0,0.85)">
       <g>
              <rect height="20.002" opacity="0" width="27.5488" x="0" y="0"/>
              <path d="M7.76562 2.84375L26.4414 2.84375Q26.9062 2.84375 27.2275 2.5293Q27.5488 2.21484 27.5488 1.75Q27.5488 1.28516 27.2275 0.963867Q26.9062 0.642578 26.4414 0.642578L7.76562 0.642578Q7.30078 0.642578 6.97949 0.963867Q6.6582 1.28516 6.6582 1.75Q6.6582 2.21484 6.97949 2.5293Q7.30078 2.84375 7.76562 2.84375ZM7.76562 11.1152L26.4414 11.1152Q26.9062 11.1152 27.2275 10.7939Q27.5488 10.4727 27.5488 10.0078Q27.5488 9.54297 27.2275 9.22852Q26.9062 8.91406 26.4414 8.91406L7.76562 8.91406Q7.30078 8.91406 6.97949 9.22852Q6.6582 9.54297 6.6582 10.0078Q6.6582 10.4727 6.97949 10.7939Q7.30078 11.1152 7.76562 11.1152ZM7.76562 19.373L26.4414 19.373Q26.9062 19.373 27.2275 19.0586Q27.5488 18.7441 27.5488 18.2793Q27.5488 17.8145 27.2275 17.4932Q26.9062 17.1719 26.4414 17.1719L7.76562 17.1719Q7.30078 17.1719 6.97949 17.4932Q6.6582 17.8145 6.6582 18.2793Q6.6582 18.7441 6.97949 19.0586Q7.30078 19.373 7.76562 19.373ZM1.72266 3.45898Q2.43359 3.45898 2.93945 2.95996Q3.44531 2.46094 3.44531 1.75Q3.44531 1.02539 2.93945 0.526367Q2.43359 0.0273438 1.72266 0.0273438Q1.01172 0.0273438 0.505859 0.526367Q0 1.02539 0 1.75Q0 2.46094 0.505859 2.95996Q1.01172 3.45898 1.72266 3.45898ZM1.72266 11.7305Q2.43359 11.7305 2.93945 11.2246Q3.44531 10.7188 3.44531 10.0078Q3.44531 9.29688 2.93945 8.79102Q2.43359 8.28516 1.72266 8.28516Q1.01172 8.28516 0.505859 8.79102Q0 9.29688 0 10.0078Q0 10.7188 0.505859 11.2246Q1.01172 11.7305 1.72266 11.7305ZM1.72266 20.002Q2.43359 20.002 2.93945 19.4961Q3.44531 18.9902 3.44531 18.2793Q3.44531 17.5547 2.93945 17.0557Q2.43359 16.5566 1.72266 16.5566Q1.01172 16.5566 0.505859 17.0557Q0 17.5547 0 18.2793Q0 18.9902 0.505859 19.4961Q1.01172 20.002 1.72266 20.002Z" />
       </g>
</svg>
