<?xml version="1.0" encoding="UTF-8"?>
<!--Generator: Apple Native CoreSVG 175-->
<!DOCTYPE svg
PUBLIC "-//W3C//DTD SVG 1.1//EN"
       "http://www.w3.org/Graphics/SVG/1.1/DTD/svg11.dtd">
<svg version="1.1"
       xmlns="http://www.w3.org/2000/svg"
       xmlns:xlink="http://www.w3.org/1999/xlink" width="31.7324" height="29.3262" viewBox="0 0 31.7324 29.3262" fill="rgba(0,0,0,0.85)">
       <g>
              <rect height="29.3262" opacity="0" width="31.7324" x="0" y="0"/>
              <path d="M4.23828 29.3125L18.7578 29.3125Q20.877 29.3125 21.9365 28.2461Q22.9961 27.1797 22.9961 25.0332L22.9961 18.6895L20.7949 18.6895L20.7949 24.9922Q20.7949 26.0176 20.2549 26.5645Q19.7148 27.1113 18.6484 27.1113L4.34766 27.1113Q3.28125 27.1113 2.74121 26.5645Q2.20117 26.0176 2.20117 24.9922L2.20117 4.33398Q2.20117 3.30859 2.74121 2.75488Q3.28125 2.20117 4.34766 2.20117L18.6484 2.20117Q19.7148 2.20117 20.2549 2.75488Q20.7949 3.30859 20.7949 4.33398L20.7949 10.623L22.9961 10.623L22.9961 4.29297Q22.9961 2.16016 21.9365 1.08008Q20.877 0 18.7578 0L4.23828 0Q2.11914 0 1.05957 1.08008Q0 2.16016 0 4.29297L0 25.0332Q0 27.1797 1.05957 28.2461Q2.11914 29.3125 4.23828 29.3125ZM12.6465 15.7363L26.6875 15.7363L28.7383 15.6543L27.7676 16.584L25.5664 18.6484Q25.2383 18.9355 25.2383 19.3867Q25.2383 19.8105 25.5049 20.0977Q25.7715 20.3848 26.1953 20.3848Q26.5918 20.3848 26.9199 20.0703L31.377 15.4492Q31.582 15.2441 31.6572 15.0527Q31.7324 14.8613 31.7324 14.6562Q31.7324 14.4512 31.6572 14.2598Q31.582 14.0684 31.377 13.8633L26.9199 9.24219Q26.5918 8.91406 26.1953 8.91406Q25.7715 8.91406 25.5049 9.19434Q25.2383 9.47461 25.2383 9.89844Q25.2383 10.3633 25.5664 10.6504L27.7676 12.7285L28.7383 13.6582L26.6875 13.5625L12.6465 13.5625Q12.2227 13.5625 11.9082 13.8906Q11.5938 14.2188 11.5938 14.6562Q11.5938 15.0938 11.9082 15.415Q12.2227 15.7363 12.6465 15.7363Z" />
       </g>
</svg>
