<svg t="1639097706075" class="icon" viewBox="0 0 1024 1024" version="1.1"
  xmlns="http://www.w3.org/2000/svg" p-id="11016" width="200" height="200">
  <path d="M1009.368 446.547L904.82 260.037v-1.096c-1.644-3.28-3.83-6.014-7.118-7.655L522.757 110.718l-1.097-0.545-1.09-0.548c-2.74-1.638-5.475-2.187-8.214-2.187-2.734 0-6.02 0.548-8.211 2.187l-1.093 0.548-1.096 0.545-373.85 141.113c-3.833 2.189-7.664 5.471-9.853 9.299L13.705 448.733c-4.378 9.845 0 21.33 9.305 26.254l84.843 42.115 8.759 4.373v217.689c0 7.655 3.831 14.22 10.946 18.045l374.4 159.16c3.285 1.645 6.568 2.192 9.853 2.192s6.567-0.548 9.855-2.192l372.206-159.708h1.096c7.661-2.729 12.593-9.842 12.593-18.045v-218.78l8.208-4.373 82.104-42.117 3.287-1.642h3.283c7.66-6.014 9.852-16.409 4.925-25.157z m-51.455-13.127l7.667 14.22-334.445 167.363-4.926 2.192-2.734-4.379-80.465-146.581-2.734-4.923 4.926-2.734L877.45 291.212l2.191 3.828 78.272 138.38zM830.378 263.319l14.779 4.921-304.34 154.239-7.66 3.828V161.039l5.474 1.641 291.747 100.639zM487.179 162.68l13.138-4.375v264.723h-6.57l-1.642-1.096-308.169-155.333 10.4-3.828L487.179 162.68zM143.978 296.135l4.926-9.299 337.727 171.196 4.926 2.734-2.737 4.924-81.009 146.03-2.737 4.379-4.926-2.187L61.327 444.357l6.02-10.938 76.631-137.284z m22.99 436.465l-9.853-3.83V530.773l0.548 0.548 246.862 123.065c2.737 1.096 5.474 2.187 8.211 2.187 6.02 0 11.494-3.282 14.779-8.209l62.4-109.93 10.4-18.051v349.501l-13.686-5.469L166.968 732.6z m701.177-14.226v10.396l-9.305 3.83-319.66 131.816-6.022 2.734V520.384l10.4 18.051 62.946 110.483c2.739 4.921 8.214 7.655 13.688 7.655 2.734 0 5.475-0.548 8.209-2.187l240.298-120.331v184.318h-0.554v0.001z" p-id="11017"></path>
</svg>