<?xml version="1.0" encoding="UTF-8"?>
<!--Generator: Apple Native CoreSVG 175-->
<!DOCTYPE svg
PUBLIC "-//W3C//DTD SVG 1.1//EN"
       "http://www.w3.org/Graphics/SVG/1.1/DTD/svg11.dtd">
<svg version="1.1" xmlns="http://www.w3.org/2000/svg" xmlns:xlink="http://www.w3.org/1999/xlink" width="34.8498" height="29.6844" viewBox="0 0 34.8498 29.6844" fill="rgba(0,0,0,0.85)">
 <g>
  <rect height="29.6844" opacity="0" width="34.8498" x="0" y="0"/>
  <path d="M11.9357 27.9604L30.2423 27.9604Q32.0197 27.9604 32.9494 27.058Q33.8791 26.1557 33.8791 24.3646L33.8791 23.4896L27.549 17.5014Q27.1525 17.1322 26.674 16.9477Q26.1955 16.7631 25.6896 16.7631Q25.1837 16.7631 24.7326 16.934Q24.2814 17.1049 23.8439 17.4877L18.3205 22.3822L16.133 20.3998Q15.7365 20.0307 15.3195 19.8666Q14.9025 19.7025 14.465 19.7025Q14.0685 19.7025 13.6789 19.8734Q13.2892 20.0443 12.8927 20.3725L8.28531 24.3783Q8.28531 26.1557 9.21499 27.058Q10.1447 27.9604 11.9357 27.9604ZM17.3361 17.8021Q18.5392 17.8021 19.3869 16.9408Q20.2345 16.0795 20.2345 14.8764Q20.2345 14.0971 19.8449 13.434Q19.4552 12.7709 18.799 12.3744Q18.1427 11.9779 17.3361 11.9779Q16.1466 11.9779 15.299 12.8393Q14.4513 13.7006 14.4513 14.8764Q14.4513 16.0795 15.299 16.9408Q16.1466 17.8021 17.3361 17.8021ZM2.35171 20.9467Q2.73453 23.0248 3.96499 23.8793Q5.19546 24.7338 7.3146 24.3646L9.00992 24.0775L9.00992 21.849L6.97281 22.1908Q5.96109 22.3686 5.32535 21.9311Q4.6896 21.4936 4.4982 20.4545L2.29703 7.98574Q2.10562 6.93301 2.55679 6.29727Q3.00796 5.66152 4.01968 5.48379L22.1896 2.28457Q23.1877 2.12051 23.8302 2.55117Q24.4728 2.98184 24.6642 4.03457L25.3752 8.01309L27.6037 8.01309L26.797 3.54238Q26.4279 1.46426 25.1906 0.60293Q23.9533-0.258398 21.8478 0.110742L3.59585 3.32363Q1.49038 3.70645 0.615385 4.93691Q-0.259615 6.16738 0.109525 8.24551ZM11.8947 28.685L30.5705 28.685Q32.7033 28.685 33.7765 27.6254Q34.8498 26.5658 34.8498 24.4467L34.8498 11.5541Q34.8498 9.44863 33.7765 8.38223Q32.7033 7.31582 30.5705 7.31582L11.8947 7.31582Q9.73453 7.31582 8.66812 8.37539Q7.60171 9.43496 7.60171 11.5541L7.60171 24.4467Q7.60171 26.5658 8.66812 27.6254Q9.73453 28.685 11.8947 28.685ZM11.922 26.4838Q10.8966 26.4838 10.3498 25.9438Q9.80288 25.4037 9.80288 24.3373L9.80288 11.6771Q9.80288 10.6107 10.3498 10.0639Q10.8966 9.51699 11.922 9.51699L30.5294 9.51699Q31.5412 9.51699 32.0949 10.0639Q32.6486 10.6107 32.6486 11.6771L32.6486 24.3373Q32.6486 25.4037 32.0949 25.9438Q31.5412 26.4838 30.5294 26.4838Z" />
 </g>
</svg>
