<?xml version="1.0" encoding="UTF-8"?>
<!--Generator: Apple Native CoreSVG 175-->
<!DOCTYPE svg
PUBLIC "-//W3C//DTD SVG 1.1//EN"
       "http://www.w3.org/Graphics/SVG/1.1/DTD/svg11.dtd">
<svg version="1.1"
       xmlns="http://www.w3.org/2000/svg"
       xmlns:xlink="http://www.w3.org/1999/xlink" width="24.2676" height="30.2012" viewBox="0 0 24.2676 30.2012" fill="rgba(0,0,0,0.85)">
       <g>
              <rect height="30.2012" opacity="0" width="24.2676" x="0" y="0"/>
              <path d="M4.29297 29.5176L19.9746 29.5176Q22.1211 29.5176 23.1943 28.4512Q24.2676 27.3848 24.2676 25.2793L24.2676 11.6348Q24.2676 9.5293 23.1943 8.46289Q22.1211 7.39648 19.9746 7.39648L16.1602 7.39648L16.1602 9.59766L19.9336 9.59766Q20.9453 9.59766 21.5059 10.1445Q22.0664 10.6914 22.0664 11.7578L22.0664 25.1562Q22.0664 26.2227 21.5059 26.7695Q20.9453 27.3164 19.9336 27.3164L4.32031 27.3164Q3.29492 27.3164 2.74805 26.7695Q2.20117 26.2227 2.20117 25.1562L2.20117 11.7578Q2.20117 10.6914 2.74805 10.1445Q3.29492 9.59766 4.32031 9.59766L8.10742 9.59766L8.10742 7.39648L4.29297 7.39648Q2.14648 7.39648 1.07324 8.45605Q0 9.51562 0 11.6348L0 25.2793Q0 27.3984 1.07324 28.458Q2.14648 29.5176 4.29297 29.5176ZM12.127 20.5215Q12.3457 20.5215 12.5303 20.4463Q12.7148 20.3711 12.9199 20.166L17.541 15.6953Q17.8691 15.3809 17.8691 14.9844Q17.8691 14.5605 17.582 14.2939Q17.2949 14.0273 16.8711 14.0273Q16.4199 14.0273 16.1328 14.3555L14.0547 16.5566L13.1387 17.5273L13.2207 15.4766L13.2207 1.06641Q13.2207 0.628906 12.8994 0.314453Q12.5781 0 12.127 0Q11.6895 0 11.3682 0.314453Q11.0469 0.628906 11.0469 1.06641L11.0469 15.4766L11.1289 17.5273L10.1992 16.5566L8.13477 14.3555Q7.84766 14.0273 7.38281 14.0273Q6.94531 14.0273 6.67188 14.2939Q6.39844 14.5605 6.39844 14.9844Q6.39844 15.3809 6.71289 15.6953L11.334 20.166Q11.5527 20.3711 11.7373 20.4463Q11.9219 20.5215 12.127 20.5215Z" />
       </g>
</svg>
