<?xml version="1.0" encoding="UTF-8"?>
<!--Generator: Apple Native CoreSVG 175-->
<!DOCTYPE svg
PUBLIC "-//W3C//DTD SVG 1.1//EN"
       "http://www.w3.org/Graphics/SVG/1.1/DTD/svg11.dtd">
<svg version="1.1"
       xmlns="http://www.w3.org/2000/svg"
       xmlns:xlink="http://www.w3.org/1999/xlink" width="24.2676" height="32.8809" viewBox="0 0 24.2676 32.8809" fill="rgba(0,0,0,0.85)">
       <g>
              <rect height="32.8809" opacity="0" width="24.2676" x="0" y="0"/>
              <path d="M4.29297 30.8574L19.9746 30.8574Q22.1211 30.8574 23.1943 29.791Q24.2676 28.7246 24.2676 26.6191L24.2676 12.9746Q24.2676 10.8691 23.1943 9.80273Q22.1211 8.73633 19.9746 8.73633L16.1602 8.73633L16.1602 10.9375L19.9336 10.9375Q20.9453 10.9375 21.5059 11.4844Q22.0664 12.0312 22.0664 13.0977L22.0664 26.4961Q22.0664 27.5625 21.5059 28.1094Q20.9453 28.6562 19.9336 28.6562L4.32031 28.6562Q3.29492 28.6562 2.74805 28.1094Q2.20117 27.5625 2.20117 26.4961L2.20117 13.0977Q2.20117 12.0312 2.74805 11.4844Q3.29492 10.9375 4.32031 10.9375L8.10742 10.9375L8.10742 8.73633L4.29297 8.73633Q2.14648 8.73633 1.07324 9.7959Q0 10.8555 0 12.9746L0 26.6191Q0 28.7383 1.07324 29.7979Q2.14648 30.8574 4.29297 30.8574ZM12.127 20.1523Q12.5781 20.1523 12.8994 19.8379Q13.2207 19.5234 13.2207 19.0859L13.2207 5.04492L13.1387 2.99414L14.0547 3.96484L16.1328 6.17969Q16.4199 6.50781 16.8711 6.50781Q17.2949 6.50781 17.582 6.23438Q17.8691 5.96094 17.8691 5.53711Q17.8691 5.1543 17.541 4.82617L12.9199 0.369141Q12.7148 0.164062 12.5303 0.0820312Q12.3457 0 12.127 0Q11.9219 0 11.7373 0.0820312Q11.5527 0.164062 11.334 0.369141L6.71289 4.82617Q6.39844 5.1543 6.39844 5.53711Q6.39844 5.96094 6.67188 6.23438Q6.94531 6.50781 7.38281 6.50781Q7.84766 6.50781 8.13477 6.17969L10.1992 3.96484L11.1289 2.99414L11.0469 5.04492L11.0469 19.0859Q11.0469 19.5234 11.3682 19.8379Q11.6895 20.1523 12.127 20.1523Z" />
       </g>
</svg>
