<?xml version="1.0" encoding="UTF-8"?>
<!--Generator: Apple Native CoreSVG 175-->
<!DOCTYPE svg
PUBLIC "-//W3C//DTD SVG 1.1//EN"
       "http://www.w3.org/Graphics/SVG/1.1/DTD/svg11.dtd">
<svg version="1.1"
       xmlns="http://www.w3.org/2000/svg"
       xmlns:xlink="http://www.w3.org/1999/xlink" width="27.0499" height="28.893" viewBox="0 0 27.0499 28.893" fill="rgba(0,0,0,0.85)">
       <g>
              <rect height="28.893" opacity="0" width="27.0499" x="0" y="0"/>
              <path d="M4.29297 27.0041L20.3438 27.0041Q22.1895 27.0041 23.208 25.9446Q24.2266 24.885 24.2266 22.7659L24.2266 8.15063L22.0254 10.3518L22.0254 22.6565Q22.0254 23.7229 21.5195 24.2629Q21.0137 24.803 20.3164 24.803L4.33398 24.803Q3.30859 24.803 2.75488 24.2629Q2.20117 23.7229 2.20117 22.6565L2.20117 7.13891Q2.20117 6.0725 2.75488 5.52563Q3.30859 4.97875 4.33398 4.97875L16.7891 4.97875L18.9902 2.77758L4.29297 2.77758Q2.16016 2.77758 1.08008 3.83715Q0 4.89672 0 7.01586L0 22.7659Q0 24.885 1.08008 25.9446Q2.16016 27.0041 4.29297 27.0041ZM9.26953 18.1448L11.9355 16.9827L24.7051 4.2268L22.832 2.38109L10.0762 15.137L8.8457 17.7073Q8.76367 17.885 8.9209 18.0559Q9.07812 18.2268 9.26953 18.1448ZM25.7168 3.22875L26.7012 2.21703Q27.043 1.84789 27.0498 1.40355Q27.0566 0.959219 26.7012 0.617422L26.3867 0.289297Q26.0723-0.0251562 25.6279 0.0021875Q25.1836 0.0295313 24.8418 0.357656L23.8438 1.34203Z" />
       </g>
</svg>
