<?xml version="1.0" encoding="UTF-8"?>
<!--Generator: Apple Native CoreSVG 175-->
<!DOCTYPE svg
PUBLIC "-//W3C//DTD SVG 1.1//EN"
       "http://www.w3.org/Graphics/SVG/1.1/DTD/svg11.dtd">
<svg version="1.1"
       xmlns="http://www.w3.org/2000/svg"
       xmlns:xlink="http://www.w3.org/1999/xlink" width="25.1699" height="25.1973" viewBox="0 0 25.1699 25.1973" fill="rgba(0,0,0,0.85)">
       <g>
              <rect height="25.1973" opacity="0" width="25.1699" x="0" y="0"/>
              <path d="M2.61133 11.4844L8.8457 11.4844Q10.1445 11.4844 10.8008 10.8213Q11.457 10.1582 11.457 8.80469L11.457 2.69336Q11.457 1.33984 10.8008 0.683594Q10.1445 0.0273438 8.8457 0.0273438L2.61133 0.0273438Q1.3125 0.0273438 0.65625 0.683594Q0 1.33984 0 2.69336L0 8.80469Q0 10.1582 0.65625 10.8213Q1.3125 11.4844 2.61133 11.4844ZM2.63867 9.55664Q2.2832 9.55664 2.10547 9.36523Q1.92773 9.17383 1.92773 8.80469L1.92773 2.69336Q1.92773 2.32422 2.10547 2.13965Q2.2832 1.95508 2.63867 1.95508L8.80469 1.95508Q9.16016 1.95508 9.34473 2.13965Q9.5293 2.32422 9.5293 2.69336L9.5293 8.80469Q9.5293 9.17383 9.34473 9.36523Q9.16016 9.55664 8.80469 9.55664ZM16.3379 11.4844L22.5586 11.4844Q23.8574 11.4844 24.5137 10.8213Q25.1699 10.1582 25.1699 8.80469L25.1699 2.69336Q25.1699 1.33984 24.5137 0.683594Q23.8574 0.0273438 22.5586 0.0273438L16.3379 0.0273438Q15.0254 0.0273438 14.3691 0.683594Q13.7129 1.33984 13.7129 2.69336L13.7129 8.80469Q13.7129 10.1582 14.3691 10.8213Q15.0254 11.4844 16.3379 11.4844ZM16.3652 9.55664Q15.9961 9.55664 15.8184 9.36523Q15.6406 9.17383 15.6406 8.80469L15.6406 2.69336Q15.6406 2.32422 15.8184 2.13965Q15.9961 1.95508 16.3652 1.95508L22.5312 1.95508Q22.9004 1.95508 23.0713 2.13965Q23.2422 2.32422 23.2422 2.69336L23.2422 8.80469Q23.2422 9.17383 23.0713 9.36523Q22.9004 9.55664 22.5312 9.55664ZM2.61133 25.1973L8.8457 25.1973Q10.1445 25.1973 10.8008 24.541Q11.457 23.8848 11.457 22.5312L11.457 16.4062Q11.457 15.0664 10.8008 14.4033Q10.1445 13.7402 8.8457 13.7402L2.61133 13.7402Q1.3125 13.7402 0.65625 14.4033Q0 15.0664 0 16.4062L0 22.5312Q0 23.8848 0.65625 24.541Q1.3125 25.1973 2.61133 25.1973ZM2.63867 23.2695Q2.2832 23.2695 2.10547 23.085Q1.92773 22.9004 1.92773 22.5312L1.92773 16.4199Q1.92773 16.0371 2.10547 15.8525Q2.2832 15.668 2.63867 15.668L8.80469 15.668Q9.16016 15.668 9.34473 15.8525Q9.5293 16.0371 9.5293 16.4199L9.5293 22.5312Q9.5293 22.9004 9.34473 23.085Q9.16016 23.2695 8.80469 23.2695ZM16.3379 25.1973L22.5586 25.1973Q23.8574 25.1973 24.5137 24.541Q25.1699 23.8848 25.1699 22.5312L25.1699 16.4062Q25.1699 15.0664 24.5137 14.4033Q23.8574 13.7402 22.5586 13.7402L16.3379 13.7402Q15.0254 13.7402 14.3691 14.4033Q13.7129 15.0664 13.7129 16.4062L13.7129 22.5312Q13.7129 23.8848 14.3691 24.541Q15.0254 25.1973 16.3379 25.1973ZM16.3652 23.2695Q15.9961 23.2695 15.8184 23.085Q15.6406 22.9004 15.6406 22.5312L15.6406 16.4199Q15.6406 16.0371 15.8184 15.8525Q15.9961 15.668 16.3652 15.668L22.5312 15.668Q22.9004 15.668 23.0713 15.8525Q23.2422 16.0371 23.2422 16.4199L23.2422 22.5312Q23.2422 22.9004 23.0713 23.085Q22.9004 23.2695 22.5312 23.2695Z"/>
       </g>
</svg>
