<?xml version="1.0" encoding="UTF-8"?>
<!--Generator: Apple Native CoreSVG 175-->
<!DOCTYPE svg
PUBLIC "-//W3C//DTD SVG 1.1//EN"
       "http://www.w3.org/Graphics/SVG/1.1/DTD/svg11.dtd">
<svg version="1.1"
       xmlns="http://www.w3.org/2000/svg"
       xmlns:xlink="http://www.w3.org/1999/xlink" width="30.1328" height="30.0371" viewBox="0 0 30.1328 30.0371" fill="rgba(0,0,0,0.85)">
       <g>
              <rect height="30.0371" opacity="0" width="30.1328" x="0" y="0"/>
              <path d="M8.4082 30.0371Q8.91406 30.0371 9.33789 29.7637Q9.76172 29.4902 10.377 28.9434L15.0938 24.7461L23.8711 24.7461Q25.9082 24.7461 27.3027 24.0146Q28.6973 23.2832 29.415 21.8887Q30.1328 20.4941 30.1328 18.4844L30.1328 8.01172Q30.1328 6.00195 29.415 4.60742Q28.6973 3.21289 27.3027 2.48145Q25.9082 1.75 23.8711 1.75L6.26172 1.75Q4.22461 1.75 2.83008 2.48145Q1.43555 3.21289 0.717773 4.60742Q0 6.00195 0 8.01172L0 18.4844Q0 20.4941 0.717773 21.8887Q1.43555 23.2832 2.83008 24.0146Q4.22461 24.7461 6.26172 24.7461L6.91797 24.7461L6.91797 28.3008Q6.91797 29.0938 7.30762 29.5654Q7.69727 30.0371 8.4082 30.0371ZM8.96875 27.5352L8.96875 23.5703Q8.96875 23.0098 8.73633 22.7773Q8.50391 22.5449 7.94336 22.5449L6.26172 22.5449Q4.18359 22.5449 3.19238 21.5127Q2.20117 20.4805 2.20117 18.4707L2.20117 8.01172Q2.20117 6.01562 3.19238 4.9834Q4.18359 3.95117 6.26172 3.95117L23.8711 3.95117Q25.9355 3.95117 26.9336 4.9834Q27.9316 6.01562 27.9316 8.01172L27.9316 18.4707Q27.9316 20.4805 26.9336 21.5127Q25.9355 22.5449 23.8711 22.5449L15.0117 22.5449Q14.4375 22.5449 14.082 22.668Q13.7266 22.791 13.3438 23.1875ZM8.02539 9.47461L21.9297 9.47461Q22.2715 9.47461 22.4971 9.24219Q22.7227 9.00977 22.7227 8.68164Q22.7227 8.35352 22.4971 8.12793Q22.2715 7.90234 21.9297 7.90234L8.02539 7.90234Q7.68359 7.90234 7.45801 8.12793Q7.23242 8.35352 7.23242 8.68164Q7.23242 9.00977 7.45801 9.24219Q7.68359 9.47461 8.02539 9.47461ZM8.02539 13.918L21.9297 13.918Q22.2715 13.918 22.4971 13.6924Q22.7227 13.4668 22.7227 13.125Q22.7227 12.8105 22.4971 12.5713Q22.2715 12.332 21.9297 12.332L8.02539 12.332Q7.68359 12.332 7.45801 12.5713Q7.23242 12.8105 7.23242 13.125Q7.23242 13.4668 7.45801 13.6924Q7.68359 13.918 8.02539 13.918ZM8.02539 18.375L17.0625 18.375Q17.3906 18.375 17.623 18.1494Q17.8555 17.9238 17.8555 17.5957Q17.8555 17.2539 17.623 17.0215Q17.3906 16.7891 17.0625 16.7891L8.02539 16.7891Q7.68359 16.7891 7.45801 17.0215Q7.23242 17.2539 7.23242 17.5957Q7.23242 17.9238 7.45801 18.1494Q7.68359 18.375 8.02539 18.375Z" />
       </g>
</svg>
