<?xml version="1.0" encoding="UTF-8"?>
<!--Generator: Apple Native CoreSVG 175-->
<!DOCTYPE svg
PUBLIC "-//W3C//DTD SVG 1.1//EN"
       "http://www.w3.org/Graphics/SVG/1.1/DTD/svg11.dtd">
<svg version="1.1" xmlns="http://www.w3.org/2000/svg" xmlns:xlink="http://www.w3.org/1999/xlink" width="30.1165" height="29.6543"  viewBox="0 0 30.1165 29.6543" fill="rgba(0,0,0,0.85)">
 <g>
  <rect height="29.6543" opacity="0" width="30.1165" x="0" y="0"/>
  <path d="M1.56641 19.4414Q1.86719 19.3457 1.99707 19.0654Q2.12695 18.7852 2.04492 18.4434Q1.78516 17.4043 1.64844 16.2627Q1.51172 15.1211 1.56641 13.6855Q1.58008 13.3027 1.38867 13.0977Q1.19727 12.8926 0.896484 12.8789Q0.5 12.8516 0.288086 13.0566Q0.0761719 13.2617 0.0351562 13.5898Q-0.046875 14.7383 0.0625 16.0986Q0.171875 17.459 0.568359 18.8809Q0.677734 19.2363 0.964844 19.3867Q1.25195 19.5371 1.56641 19.4414ZM0.964844 11.293Q1.26562 11.4023 1.59375 11.2725Q1.92188 11.1426 2.05859 10.7461Q3.16602 7.66992 5.16211 5.62598Q7.1582 3.58203 9.68066 2.55664Q12.2031 1.53125 14.8691 1.53125Q16.6875 1.53125 18.1572 1.89355Q19.627 2.25586 20.8438 2.95312Q21.1992 3.1582 21.541 3.1377Q21.8828 3.11719 22.0332 2.77539Q22.1973 2.41992 22.0605 2.18066Q21.9238 1.94141 21.6641 1.77734Q20.1055 0.792969 18.4648 0.396484Q16.8242 0 14.8691 0Q12.5586 0 10.3916 0.615234Q8.22461 1.23047 6.34473 2.48145Q4.46484 3.73242 2.98828 5.60547Q1.51172 7.47852 0.568359 9.99414Q0.376953 10.5137 0.527344 10.8486Q0.677734 11.1836 0.964844 11.293ZM29.4023 16.2559Q29.7305 16.2559 29.9355 16.0166Q30.1406 15.7773 30.1133 15.4219Q29.7988 12.6328 29.0811 10.4795Q28.3633 8.32617 27.2217 6.64453Q26.0801 4.96289 24.5078 3.58203Q24.207 3.32227 23.8926 3.36328Q23.5781 3.4043 23.4004 3.60938Q23.209 3.82812 23.2158 4.13574Q23.2227 4.44336 23.5234 4.7168Q25.5469 6.60352 26.9209 9.16699Q28.2949 11.7305 28.6367 15.4492Q28.6777 15.791 28.876 16.0234Q29.0742 16.2559 29.4023 16.2559ZM3.15234 23.4062Q3.34375 23.6797 3.68555 23.7275Q4.02734 23.7754 4.31445 23.5293Q5.05273 22.9141 5.42188 21.957Q5.79102 21 5.79102 19.9609Q5.79102 19.0176 5.58594 18.2861Q5.38086 17.5547 5.17578 16.748Q4.9707 15.9414 4.9707 14.7656Q4.9707 12.7559 5.74316 10.9854Q6.51562 9.21484 7.86914 7.85449Q9.22266 6.49414 11 5.72168Q12.7773 4.94922 14.7871 4.94922Q18.0273 4.94922 20.4131 6.59668Q22.7988 8.24414 24.1113 11.1904Q25.4238 14.1367 25.4375 18.0469Q25.4375 20.3301 25.123 21.9502Q24.8086 23.5703 24.4258 24.5Q24.2891 24.8281 24.3984 25.1289Q24.5078 25.4297 24.7676 25.5664Q25.0547 25.6895 25.3896 25.5801Q25.7246 25.4707 25.8477 25.1426Q26.2441 24.0488 26.6064 22.2715Q26.9688 20.4941 26.9688 18.0332Q26.9688 14.7656 26.1074 12.0859Q25.2461 9.40625 23.6465 7.46484Q22.0469 5.52344 19.8047 4.4707Q17.5625 3.41797 14.7871 3.41797Q12.4629 3.41797 10.4053 4.31348Q8.34766 5.20898 6.78223 6.77441Q5.2168 8.33984 4.32812 10.3906Q3.43945 12.4414 3.43945 14.7656Q3.43945 15.8867 3.65137 16.7891Q3.86328 17.6914 4.0752 18.4639Q4.28711 19.2363 4.30078 19.9473Q4.30078 20.6445 4.04785 21.2734Q3.79492 21.9023 3.31641 22.3262Q3.07031 22.5312 3.0293 22.8457Q2.98828 23.1602 3.15234 23.4062ZM6.37891 25.9492Q6.88477 25.6895 7.45898 25.0811Q8.0332 24.4727 8.49805 23.7139Q8.96289 22.9551 9.1543 22.2441Q9.23633 21.957 9.11328 21.6631Q8.99023 21.3691 8.66211 21.2598Q8.375 21.1641 8.10156 21.3145Q7.82812 21.4648 7.71875 21.793Q7.44531 22.6953 6.94629 23.3789Q6.44727 24.0625 5.69531 24.582Q5.32617 24.8418 5.25098 25.1357Q5.17578 25.4297 5.28516 25.6621Q5.4082 25.9219 5.70898 26.0312Q6.00977 26.1406 6.37891 25.9492ZM9.30469 18.5391Q9.04492 17.8418 8.72363 16.9395Q8.40234 16.0371 8.40234 14.8477Q8.40234 13.0293 9.26367 11.5664Q10.125 10.1035 11.5879 9.24219Q13.0508 8.38086 14.8691 8.38086Q15.5664 8.38086 16.0176 8.44238Q16.4688 8.50391 16.8857 8.66797Q17.3027 8.83203 17.918 9.11914Q18.2324 9.26953 18.499 9.19434Q18.7656 9.11914 18.875 8.88672Q19.0391 8.59961 18.9434 8.28516Q18.8477 7.9707 18.5059 7.76562Q17.8223 7.36914 16.8516 7.10254Q15.8809 6.83594 14.8691 6.83594Q13.1875 6.83594 11.7314 7.45117Q10.2754 8.06641 9.18164 9.16016Q8.08789 10.2539 7.47266 11.71Q6.85742 13.166 6.85742 14.8477Q6.85742 16.1465 7.15137 17.1992Q7.44531 18.252 7.80078 19.127Q7.95117 19.4688 8.23828 19.6055Q8.52539 19.7422 8.89453 19.5918Q9.19531 19.4688 9.30469 19.168Q9.41406 18.8672 9.30469 18.5391ZM20.0645 10.9512Q21.0488 12.4004 21.5479 14.376Q22.0469 16.3516 22.0469 18.7715Q22.0469 21.3555 21.3838 23.6455Q20.7207 25.9355 19.5996 27.3301Q19.4219 27.5762 19.4082 27.8906Q19.3945 28.2051 19.627 28.4238Q19.873 28.6562 20.2285 28.6357Q20.584 28.6152 20.7891 28.3418Q22.0332 26.6465 22.792 24.1035Q23.5508 21.5605 23.5508 18.7168Q23.5508 16.6523 23.2773 15.0869Q23.0039 13.5215 22.5186 12.3252Q22.0332 11.1289 21.418 10.1309Q21.1992 9.80273 20.8779 9.70703Q20.5566 9.61133 20.2695 9.76172Q19.9688 9.92578 19.9004 10.2607Q19.832 10.5957 20.0645 10.9512ZM9.25 27.7539Q10.9316 26.4004 11.8271 24.3359Q12.7227 22.2715 12.709 19.8926Q12.6953 18.6895 12.4766 17.7598Q12.2578 16.8301 12.0459 16.085Q11.834 15.3398 11.834 14.6836Q11.834 13.3848 12.6611 12.5986Q13.4883 11.8125 14.8281 11.8125Q16.1953 11.8125 16.9883 12.7422Q17.7812 13.6719 18.1367 15.2236Q18.4922 16.7754 18.5332 18.6211Q18.6016 20.7539 18.1572 22.6201Q17.7129 24.4863 16.9062 25.9355Q16.0996 27.3848 15.0879 28.2734Q14.8418 28.4785 14.7939 28.7656Q14.7461 29.0527 14.9102 29.3125Q15.1016 29.5859 15.4434 29.627Q15.7852 29.668 16.0586 29.4219Q17.125 28.4512 18.0205 26.7832Q18.916 25.1152 19.4492 22.9893Q19.9824 20.8633 19.9688 18.5117Q19.9688 16.2148 19.4766 14.3486Q18.9844 12.4824 17.8633 11.3818Q16.7422 10.2812 14.8281 10.2812Q13.5566 10.2812 12.5381 10.8145Q11.5195 11.3477 10.9248 12.3047Q10.3301 13.2617 10.3301 14.5469Q10.3301 15.3262 10.5352 16.2012Q10.7402 17.0762 10.9453 18.0127Q11.1504 18.9492 11.1641 19.8926Q11.1777 21.9297 10.4395 23.666Q9.70117 25.4023 8.29297 26.5508Q8.01953 26.7832 7.97168 27.0771Q7.92383 27.3711 8.10156 27.6309Q8.30664 27.9316 8.6416 27.959Q8.97656 27.9863 9.25 27.7539ZM12.4492 28.8477Q13.2559 28.2598 14.1309 27.0498Q15.0059 25.8398 15.3887 24.5273Q15.457 24.2949 15.3818 23.9873Q15.3066 23.6797 14.9785 23.5703Q14.6367 23.4473 14.3633 23.584Q14.0898 23.7207 13.9941 23.9941Q13.4746 25.3613 12.8389 26.2227Q12.2031 27.084 11.5195 27.6172Q11.2598 27.8223 11.1982 28.1299Q11.1367 28.4375 11.3145 28.6973Q11.4785 28.9844 11.8203 29.0254Q12.1621 29.0664 12.4492 28.8477ZM16.168 21.3418Q16.3594 20.4121 16.373 19.3525Q16.3867 18.293 16.2227 17.1992Q16.0586 16.1055 15.7305 15.0801Q15.5938 14.6973 15.3203 14.5469Q15.0469 14.3965 14.7324 14.4922Q14.4316 14.5879 14.2812 14.8545Q14.1309 15.1211 14.2402 15.4766Q14.5547 16.4609 14.6982 17.4385Q14.8418 18.416 14.835 19.3457Q14.8281 20.2754 14.6641 21.1367Q14.5957 21.4375 14.7324 21.6973Q14.8691 21.957 15.2246 22.0117Q15.5527 22.0801 15.8262 21.8955Q16.0996 21.7109 16.168 21.3418Z" />
 </g>
</svg>
