<?xml version="1.0" encoding="UTF-8"?>
<!--Generator: Apple Native CoreSVG 175-->
<!DOCTYPE svg
PUBLIC "-//W3C//DTD SVG 1.1//EN"
       "http://www.w3.org/Graphics/SVG/1.1/DTD/svg11.dtd">
<svg version="1.1"
       xmlns="http://www.w3.org/2000/svg"
       xmlns:xlink="http://www.w3.org/1999/xlink" width="26.4688" height="32.8809" viewBox="0 0 26.4688 32.8809" fill="rgba(0,0,0,0.85)">
       <g>
              <rect height="32.8809" opacity="0" width="26.4688" x="0" y="0"/>
              <path d="M6.97266 30.4473L19.5098 30.4473Q20.9727 30.4473 21.8887 29.5723Q22.8047 28.6973 22.873 27.2207L23.8164 7.3418L25.457 7.3418Q25.8809 7.3418 26.1748 7.03418Q26.4688 6.72656 26.4688 6.30273Q26.4688 5.87891 26.168 5.57812Q25.8672 5.27734 25.457 5.27734L1.02539 5.27734Q0.615234 5.27734 0.307617 5.58496Q0 5.89258 0 6.30273Q0 6.72656 0.307617 7.03418Q0.615234 7.3418 1.02539 7.3418L2.66602 7.3418L3.60938 27.2344Q3.67773 28.7109 4.58691 29.5791Q5.49609 30.4473 6.97266 30.4473ZM7.16406 28.3828Q6.57617 28.3828 6.17969 27.9863Q5.7832 27.5898 5.75586 26.9883L4.79883 7.3418L21.6152 7.3418L20.7129 26.9883Q20.6855 27.6035 20.2891 27.9932Q19.8926 28.3828 19.291 28.3828ZM9.1875 26.0449Q9.57031 26.0449 9.80273 25.8193Q10.0352 25.5938 10.0352 25.2383L9.61133 10.6094Q9.61133 10.2539 9.37207 10.0352Q9.13281 9.81641 8.76367 9.81641Q8.38086 9.81641 8.1416 10.042Q7.90234 10.2676 7.91602 10.623L8.32617 25.2383Q8.33984 25.6074 8.57227 25.8262Q8.80469 26.0449 9.1875 26.0449ZM13.2344 26.0449Q13.6309 26.0449 13.877 25.8193Q14.123 25.5938 14.123 25.2383L14.123 10.623Q14.123 10.2676 13.877 10.042Q13.6309 9.81641 13.2344 9.81641Q12.8516 9.81641 12.6055 10.042Q12.3594 10.2676 12.3594 10.623L12.3594 25.2383Q12.3594 25.5938 12.6055 25.8193Q12.8516 26.0449 13.2344 26.0449ZM17.2949 26.0449Q17.6641 26.0449 17.8965 25.8262Q18.1289 25.6074 18.1426 25.2383L18.5527 10.623Q18.5664 10.2676 18.334 10.042Q18.1016 9.81641 17.7051 9.81641Q17.3359 9.81641 17.1035 10.0352Q16.8711 10.2539 16.8574 10.623L16.4473 25.2383Q16.4336 25.5938 16.666 25.8193Q16.8984 26.0449 17.2949 26.0449ZM7.23242 6.24805L9.40625 6.24805L9.40625 3.32227Q9.40625 2.74805 9.78223 2.39258Q10.1582 2.03711 10.7734 2.03711L15.668 2.03711Q16.2832 2.03711 16.6592 2.39258Q17.0352 2.74805 17.0352 3.32227L17.0352 6.24805L19.209 6.24805L19.209 3.18555Q19.209 1.70898 18.2998 0.854492Q17.3906 0 15.8184 0L10.623 0Q9.05078 0 8.1416 0.854492Q7.23242 1.70898 7.23242 3.18555Z" />
       </g>
</svg>
