<?xml version="1.0" encoding="UTF-8"?>
<!--Generator: Apple Native CoreSVG 175-->
<!DOCTYPE svg
PUBLIC "-//W3C//DTD SVG 1.1//EN"
       "http://www.w3.org/Graphics/SVG/1.1/DTD/svg11.dtd">
<svg version="1.1"
       xmlns="http://www.w3.org/2000/svg"
       xmlns:xlink="http://www.w3.org/1999/xlink" width="27.8906" height="27.9043" viewBox="0 0 27.8906 27.9043" fill="rgba(0,0,0,0.85)">
       <g>
              <rect height="27.9043" opacity="0" width="27.8906" x="0" y="0"/>
              <path d="M13.9453 27.8906Q16.8027 27.8906 19.3252 26.7969Q21.8477 25.7031 23.7754 23.7754Q25.7031 21.8477 26.7969 19.3252Q27.8906 16.8027 27.8906 13.9453Q27.8906 11.0879 26.7969 8.56543Q25.7031 6.04297 23.7754 4.11523Q21.8477 2.1875 19.3184 1.09375Q16.7891 0 13.9316 0Q11.0742 0 8.55176 1.09375Q6.0293 2.1875 4.1084 4.11523Q2.1875 6.04297 1.09375 8.56543Q0 11.0879 0 13.9453Q0 16.8027 1.09375 19.3252Q2.1875 21.8477 4.11523 23.7754Q6.04297 25.7031 8.56543 26.7969Q11.0879 27.8906 13.9453 27.8906ZM13.9453 25.5664Q11.5254 25.5664 9.41992 24.6641Q7.31445 23.7617 5.72168 22.1689Q4.12891 20.5762 3.2334 18.4707Q2.33789 16.3652 2.33789 13.9453Q2.33789 11.5254 3.2334 9.41992Q4.12891 7.31445 5.71484 5.71484Q7.30078 4.11523 9.40625 3.21973Q11.5117 2.32422 13.9316 2.32422Q16.3516 2.32422 18.457 3.21973Q20.5625 4.11523 22.1621 5.71484Q23.7617 7.31445 24.6641 9.41992Q25.5664 11.5254 25.5664 13.9453Q25.5664 16.3652 24.6709 18.4707Q23.7754 20.5762 22.1826 22.1689Q20.5898 23.7617 18.4775 24.6641Q16.3652 25.5664 13.9453 25.5664ZM10.4043 21.998L17.4727 21.998Q18.1562 21.998 18.5596 21.6221Q18.9629 21.2461 18.9766 20.5625L19.4414 9.74805L20.5215 9.74805Q20.7676 9.74805 20.9385 9.57715Q21.1094 9.40625 21.123 9.17383Q21.1367 8.92773 20.9521 8.75684Q20.7676 8.58594 20.5215 8.58594L17.2539 8.58594L17.2539 7.47852Q17.2539 6.63086 16.7275 6.13184Q16.2012 5.63281 15.2988 5.63281L12.5371 5.63281Q11.6484 5.63281 11.1289 6.13184Q10.6094 6.63086 10.6094 7.47852L10.6094 8.58594L7.31445 8.58594Q7.06836 8.58594 6.89746 8.75684Q6.72656 8.92773 6.72656 9.17383Q6.72656 9.40625 6.89746 9.57715Q7.06836 9.74805 7.31445 9.74805L8.43555 9.74805L8.90039 20.5625Q8.92773 21.2461 9.31738 21.6221Q9.70703 21.998 10.4043 21.998ZM11.5801 19.8789Q11.0879 19.8789 11.0879 19.4141L10.8008 11.4297Q10.8008 10.9512 11.3066 10.9512Q11.7852 10.9512 11.7988 11.4297L12.0586 19.4141Q12.0586 19.8789 11.5801 19.8789ZM13.9043 19.8789Q13.4121 19.8789 13.4121 19.4141L13.4121 11.4297Q13.4121 10.9512 13.9043 10.9512Q14.4238 10.9512 14.4238 11.4297L14.4238 19.4141Q14.4238 19.8789 13.9043 19.8789ZM16.2422 19.8789Q15.7637 19.8789 15.7637 19.4141L16.0234 11.4297Q16.0371 10.9512 16.5293 10.9512Q17.0215 10.9512 17.0215 11.4297L16.7344 19.4141Q16.7344 19.8789 16.2422 19.8789ZM11.9902 8.58594L11.9902 7.54688Q11.9902 7.28711 12.1611 7.12305Q12.332 6.95898 12.6055 6.95898L15.2168 6.95898Q15.4902 6.95898 15.668 7.12305Q15.8457 7.28711 15.8457 7.54688L15.8457 8.58594Z" />
       </g>
</svg>
