<?xml version="1.0" standalone="no"?><!DOCTYPE svg PUBLIC "-//W3C//DTD SVG 1.1//EN" "http://www.w3.org/Graphics/SVG/1.1/DTD/svg11.dtd"><svg t="1642342847984" class="icon" viewBox="0 0 1024 1024" version="1.1" xmlns="http://www.w3.org/2000/svg" p-id="52110" xmlns:xlink="http://www.w3.org/1999/xlink" width="200" height="200"><defs><style type="text/css"></style></defs><path d="M512 505.9584m-122.88 0a122.88 122.88 0 1 0 245.76 0 122.88 122.88 0 1 0-245.76 0Z" p-id="52111" fill="#EED198"></path><path d="M1024 459.8784h-74.1376A440.32 440.32 0 0 0 558.08 67.9936V0h-92.16v67.9936A440.32 440.32 0 0 0 74.1376 459.8784H0v92.16h74.1376A440.32 440.32 0 0 0 465.92 943.8208V1024h92.16v-80.1792a440.32 440.32 0 0 0 391.7824-391.7824H1024zM558.08 850.944v-74.4448h-92.16v74.4448a348.672 348.672 0 0 1-298.9056-298.9056h80.4864v-92.16h-80.4864A348.16 348.16 0 0 1 465.92 160.9728v86.528h92.16v-86.528a348.16 348.16 0 0 1 298.9056 298.9056h-80.4864v92.16h80.4864A348.672 348.672 0 0 1 558.08 850.944z" p-id="52112" fill="#EED198"></path></svg>