<?xml version="1.0" standalone="no"?><!DOCTYPE svg PUBLIC "-//W3C//DTD SVG 1.1//EN" "http://www.w3.org/Graphics/SVG/1.1/DTD/svg11.dtd"><svg t="1641828300582" class="icon" viewBox="0 0 1024 1024" version="1.1" xmlns="http://www.w3.org/2000/svg" p-id="46889" xmlns:xlink="http://www.w3.org/1999/xlink" width="200" height="200"><defs><style type="text/css"></style></defs><path d="M853.333333 0a170.666667 170.666667 0 0 1 170.666667 170.666667v682.666666a170.666667 170.666667 0 0 1-170.666667 170.666667H170.666667a170.666667 170.666667 0 0 1-170.666667-170.666667V170.666667a170.666667 170.666667 0 0 1 170.666667-170.666667h682.666666z m-112.469333 680.533333l-60.330667 60.330667 120.661334 120.661333 60.330666-60.330666-120.661333-120.661334z m-60.330667-422.4a298.666667 298.666667 0 1 0-422.4 422.4 298.666667 298.666667 0 0 0 422.4-422.4zM318.464 318.464a213.333333 213.333333 0 1 1 301.738667 301.738667 213.333333 213.333333 0 0 1-301.738667-301.738667z" p-id="46890" fill="#EED198"></path></svg>