<?xml version="1.0" encoding="UTF-8"?>
<!--Generator: Apple Native CoreSVG 175-->
<!DOCTYPE svg
PUBLIC "-//W3C//DTD SVG 1.1//EN"
       "http://www.w3.org/Graphics/SVG/1.1/DTD/svg11.dtd">
<svg version="1.1"
       xmlns="http://www.w3.org/2000/svg"
       xmlns:xlink="http://www.w3.org/1999/xlink" width="31.4863" height="29.2854" viewBox="0 0 31.4863 29.2854" fill="rgba(0,0,0,0.85)">
       <g>
              <rect height="29.2854" opacity="0" width="31.4863" x="0" y="0"/>
              <path d="M5.87891 5.72183Q4.15625 6.59683 2.69336 7.73159Q1.23047 8.86636 0.136719 10.1652Q0 10.3429 0 10.548Q0 10.7531 0.177734 10.9445L2.07812 12.8312Q2.26953 13.0363 2.5293 13.0294Q2.78906 13.0226 2.98047 12.8175Q5.5918 10.0558 8.88672 8.72964ZM15.1484 7.44448Q15.2988 7.41714 15.4629 7.40347Q15.627 7.38979 15.7773 7.38979Q19.6191 7.45815 22.8115 8.86636Q26.0039 10.2746 28.5195 12.8585Q28.7109 13.05 28.9639 13.0431Q29.2168 13.0363 29.4082 12.8312L31.2949 10.9445Q31.4863 10.7531 31.4863 10.548Q31.4863 10.3429 31.3496 10.1652Q29.6953 8.21011 27.2549 6.65151Q24.8145 5.09292 21.8613 4.19058Q18.9082 3.28823 15.7363 3.28823Q14.7109 3.28823 13.6582 3.39761Q12.6055 3.50698 11.4434 3.7394ZM11.9766 11.7921Q9.9668 12.339 8.31934 13.3644Q6.67188 14.3898 5.57812 15.6886Q5.42773 15.8664 5.44141 16.0714Q5.45508 16.2765 5.63281 16.4542L7.75195 18.5597Q7.9707 18.7648 8.22363 18.7443Q8.47656 18.7238 8.68164 18.505Q9.50195 17.6027 10.5957 16.9123Q11.6895 16.2218 12.9609 15.8185Q14.2324 15.4152 15.5723 15.4015ZM25.0059 17.3019L25.8535 16.4542Q26.0312 16.2765 26.0381 16.0714Q26.0449 15.8664 25.9082 15.6886Q24.8828 14.4035 23.1738 13.3507Q21.4648 12.298 19.5234 11.8195ZM15.75 19.257Q14.2871 19.257 13.0771 19.9269Q11.8672 20.5968 11.2109 21.4855Q11.1016 21.6496 11.1426 21.8273Q11.1836 22.005 11.334 22.1554L14.6562 25.3546Q15.0664 25.7375 15.2988 25.8742Q15.5312 26.0109 15.75 26.0109Q15.9824 26.0109 16.2148 25.8742Q16.4473 25.7375 16.8574 25.3546L20.166 22.1554Q20.3301 22.005 20.3574 21.7931Q20.3848 21.5812 20.248 21.4035Q19.5781 20.5421 18.3887 19.8996Q17.1992 19.257 15.75 19.257ZM27.2617 24.7941Q27.5762 25.0949 28.0137 25.0949Q28.4512 25.0949 28.752 24.7941Q29.0527 24.4796 29.0596 24.0421Q29.0664 23.6046 28.752 23.3039L5.76953 0.307763Q5.45508 0.00698138 5.01074 0.000145445Q4.56641-0.00669049 4.26562 0.307763Q3.96484 0.608544 3.96484 1.05972Q3.96484 1.51089 4.26562 1.798Z" />
       </g>
</svg>
