<?xml version="1.0" encoding="UTF-8"?>
<!--Generator: Apple Native CoreSVG 175-->
<!DOCTYPE svg
PUBLIC "-//W3C//DTD SVG 1.1//EN"
       "http://www.w3.org/Graphics/SVG/1.1/DTD/svg11.dtd">
<svg version="1.1"
       xmlns="http://www.w3.org/2000/svg"
       xmlns:xlink="http://www.w3.org/1999/xlink" width="31.4733" height="22.7363" viewBox="0 0 31.4733 22.7363" fill="rgba(0,0,0,0.85)">
       <g>
              <rect height="22.7363" opacity="0" width="31.4733" x="0" y="0"/>
              <path d="M15.7298 22.7363Q15.9622 22.7363 16.1947 22.6064Q16.4271 22.4766 16.8236 22.0801L20.1595 18.8809Q20.3099 18.7305 20.3441 18.5186Q20.3783 18.3066 20.2279 18.1289Q19.5579 17.2676 18.3617 16.625Q17.1654 15.9824 15.7298 15.9824Q14.2533 15.9824 13.0501 16.6523Q11.847 17.3223 11.1771 18.2109Q11.0814 18.375 11.1156 18.5527Q11.1497 18.7305 11.3138 18.8809L14.6361 22.0801Q15.0326 22.4629 15.265 22.5996Q15.4974 22.7363 15.7298 22.7363ZM7.73177 15.2988Q7.95052 15.5039 8.21029 15.4834Q8.47005 15.4629 8.67513 15.2441Q9.9056 13.877 11.7923 12.9883Q13.679 12.0996 15.7298 12.1133Q17.8079 12.0996 19.6947 13.0088Q21.5814 13.918 22.8392 15.2852Q23.0306 15.4902 23.2699 15.4902Q23.5091 15.4902 23.7279 15.2852L25.847 13.1797Q26.0111 13.0156 26.0247 12.8037Q26.0384 12.5918 25.888 12.4141Q24.8626 11.1426 23.2972 10.1445Q21.7318 9.14648 19.7972 8.56543Q17.8626 7.98438 15.7298 7.98438Q13.597 7.98438 11.6624 8.56543Q9.72786 9.14648 8.16927 10.1445Q6.61068 11.1426 5.57161 12.4141Q5.42122 12.5918 5.4349 12.7969Q5.44857 13.002 5.61263 13.1797ZM2.05794 9.58398Q2.24935 9.78906 2.51595 9.78223Q2.78255 9.77539 2.97396 9.57031Q5.48958 6.89062 8.75033 5.50293Q12.0111 4.11523 15.7298 4.11523Q19.4759 4.11523 22.7435 5.50977Q26.0111 6.9043 28.513 9.58398Q28.7044 9.77539 28.9574 9.76855Q29.2103 9.76172 29.4017 9.55664L31.2884 7.66992Q31.4661 7.47852 31.473 7.27344Q31.4798 7.06836 31.3294 6.89062Q29.7298 4.9082 27.2826 3.35645Q24.8353 1.80469 21.8685 0.90918Q18.9017 0.0136719 15.7298 0.0136719Q12.5579 0.0136719 9.59115 0.902344Q6.62435 1.79102 4.17708 3.34961Q1.72982 4.9082 0.130208 6.89062Q-0.00651042 7.06836 0.000325521 7.27344Q0.00716146 7.47852 0.171224 7.66992Z" />
       </g>
</svg>
