<?xml version="1.0" encoding="UTF-8"?>
<!--Generator: Apple Native CoreSVG 175-->
<!DOCTYPE svg
PUBLIC "-//W3C//DTD SVG 1.1//EN"
       "http://www.w3.org/Graphics/SVG/1.1/DTD/svg11.dtd">
<svg version="1.1" xmlns="http://www.w3.org/2000/svg" xmlns:xlink="http://www.w3.org/1999/xlink" width="27.8906" height="27.9043" viewBox="0 0 27.8906 27.9043" fill="rgba(0,0,0,0.85)">
 <g>
  <rect height="27.9043" opacity="0" width="27.8906" x="0" y="0"/>
  <path d="M13.9453 27.8906Q16.8027 27.8906 19.3252 26.7969Q21.8477 25.7031 23.7754 23.7754Q25.7031 21.8477 26.7969 19.3252Q27.8906 16.8027 27.8906 13.9453Q27.8906 11.0879 26.7969 8.56543Q25.7031 6.04297 23.7754 4.11523Q21.8477 2.1875 19.3184 1.09375Q16.7891 0 13.9316 0Q11.0742 0 8.55176 1.09375Q6.0293 2.1875 4.1084 4.11523Q2.1875 6.04297 1.09375 8.56543Q0 11.0879 0 13.9453Q0 16.8027 1.09375 19.3252Q2.1875 21.8477 4.11523 23.7754Q6.04297 25.7031 8.56543 26.7969Q11.0879 27.8906 13.9453 27.8906ZM13.9453 25.5664Q11.5254 25.5664 9.41992 24.6641Q7.31445 23.7617 5.72168 22.1689Q4.12891 20.5762 3.2334 18.4707Q2.33789 16.3652 2.33789 13.9453Q2.33789 11.5254 3.2334 9.41992Q4.12891 7.31445 5.71484 5.71484Q7.30078 4.11523 9.40625 3.21973Q11.5117 2.32422 13.9316 2.32422Q16.3516 2.32422 18.457 3.21973Q20.5625 4.11523 22.1621 5.71484Q23.7617 7.31445 24.6641 9.41992Q25.5664 11.5254 25.5664 13.9453Q25.5664 16.3652 24.6709 18.4707Q23.7754 20.5762 22.1826 22.1689Q20.5898 23.7617 18.4775 24.6641Q16.3652 25.5664 13.9453 25.5664ZM9.26953 19.7285Q9.74805 19.7285 10.0625 19.3867L13.9316 15.5039L17.8281 19.3867Q18.1562 19.7285 18.6074 19.7285Q19.0586 19.7285 19.3799 19.4004Q19.7012 19.0723 19.7012 18.6211Q19.7012 18.1699 19.373 17.8418L15.4902 13.959L19.3867 10.0488Q19.7148 9.7207 19.7148 9.2832Q19.7148 8.83203 19.3936 8.51074Q19.0723 8.18945 18.6211 8.18945Q18.1973 8.18945 17.8691 8.53125L13.9316 12.4277L10.0352 8.54492Q9.73438 8.2168 9.26953 8.2168Q8.81836 8.2168 8.49707 8.53125Q8.17578 8.8457 8.17578 9.29688Q8.17578 9.74805 8.50391 10.0625L12.3867 13.959L8.50391 17.8555Q8.17578 18.1699 8.17578 18.6211Q8.17578 19.0723 8.49707 19.4004Q8.81836 19.7285 9.26953 19.7285Z" />
 </g>
</svg>
