<svg width="1024" height="1024" viewBox="0 0 1024 1024" fill="none" xmlns="http://www.w3.org/2000/svg">
<rect width="1024" height="1024" fill="white"/>
<path d="M582.165 465.576C591.079 469.585 606.371 472.87 616.146 472.87H793.213C802.988 472.87 818.283 469.589 827.198 465.576L854.315 438.455C858.328 429.54 861.612 414.249 861.612 404.474V227.396C861.612 217.621 858.328 202.329 854.315 193.415L827.198 166.297C818.283 162.284 802.988 159.003 793.213 159.003H616.146C606.371 159.003 591.079 162.284 582.165 166.297L555.04 193.418C551.027 202.333 547.739 217.624 547.739 227.399V404.474C547.739 414.249 551.027 429.54 555.04 438.455L582.165 465.576V465.576Z" fill="#4E6070"/>
<path d="M623.674 302.502C623.674 292.727 631.671 284.729 641.446 284.729H772.963C782.738 284.729 790.735 292.727 790.735 302.502V329.363C790.735 339.138 782.738 347.136 772.963 347.136H641.446C631.671 347.136 623.674 339.138 623.674 329.363V302.502Z" fill="#F8FFFF"/>
<path d="M441.513 558.085C432.598 554.076 417.307 550.795 407.532 550.795H230.457C220.682 550.795 205.391 554.076 196.476 558.089L169.355 585.202C165.342 594.117 162.062 609.409 162.062 619.184V796.251C162.062 806.026 165.342 821.325 169.355 830.239L196.48 857.364C205.394 861.377 220.686 864.657 230.461 864.657H407.532C417.307 864.657 432.598 861.377 441.513 857.364L468.641 830.239C472.65 821.325 475.935 806.026 475.935 796.251V619.184C475.935 609.409 472.65 594.11 468.641 585.195L441.513 558.085Z" fill="#4E6070"/>
<path d="M400.089 744.679C407.002 751.589 407.002 762.899 400.089 769.805L381.097 788.808C374.184 795.714 362.873 795.714 355.963 788.808L331.561 764.41C324.652 757.5 313.341 757.5 306.428 764.41L282.029 788.808C278.689 792.126 274.171 793.988 269.463 793.988C264.754 793.988 260.236 792.126 256.896 788.808L237.904 769.805C230.99 762.899 230.994 751.589 237.904 744.679L262.302 720.284C269.212 713.374 269.216 702.064 262.302 695.157L237.904 670.756C230.99 663.853 230.99 652.539 237.904 645.632L256.896 626.634C260.236 623.315 264.754 621.452 269.463 621.452C274.171 621.452 278.689 623.315 282.029 626.634L306.428 651.025C313.341 657.935 324.652 657.935 331.561 651.025L355.963 626.634C362.873 619.724 374.184 619.724 381.097 626.634L400.089 645.632C407.002 652.539 407.002 663.853 400.089 670.756L375.691 695.157C368.777 702.064 368.781 713.374 375.691 720.284L400.089 744.679V744.679Z" fill="#F8FFFF"/>
<path d="M191.418 465.576C200.333 469.585 215.624 472.87 225.399 472.87H402.47C412.245 472.87 427.537 469.589 436.451 465.576L463.572 438.451L470.866 422.239V227.396C470.866 217.621 467.585 202.329 463.572 193.415L436.451 166.294C427.537 162.284 412.245 159 402.47 159H225.399C215.624 159 200.333 162.281 191.418 166.294L164.294 193.415C160.284 202.329 157 217.621 157 227.396V404.47C157 414.245 160.281 429.537 164.294 438.455L191.418 465.576V465.576Z" fill="#4E6070"/>
<path d="M210.154 299.972C210.154 290.197 218.151 282.199 227.926 282.199H262.426C272.201 282.199 280.199 274.202 280.199 264.427V229.927C280.199 220.152 288.196 212.154 297.971 212.154H324.833C334.608 212.154 342.605 220.152 342.605 229.927V264.427C342.605 274.202 350.603 282.199 360.378 282.199H394.878C404.653 282.199 412.65 290.197 412.65 299.972V326.833C412.65 336.608 404.653 344.606 394.878 344.606H360.378C350.603 344.606 342.605 352.603 342.605 362.378V396.871C342.605 406.646 334.608 414.644 324.833 414.644H297.971C288.196 414.644 280.199 406.646 280.199 396.871V362.378C280.199 352.603 272.201 344.606 262.426 344.606H227.926C218.151 344.606 210.154 336.608 210.154 326.833V299.972Z" fill="#F8FFFF"/>
<path d="M832.252 558.085C823.337 554.076 808.042 550.795 798.267 550.795H621.2C611.425 550.795 596.134 554.076 587.219 558.089L560.102 585.202C556.089 594.117 552.804 609.412 552.804 619.187V796.258C552.804 806.033 556.089 821.328 560.102 830.243L587.219 857.371C596.134 861.384 611.425 864.665 621.2 864.665H798.267C808.042 864.665 823.337 861.384 832.252 857.371L859.384 830.243C863.39 821.328 866.674 806.033 866.674 796.258V619.184C866.674 609.409 863.39 594.11 859.384 585.195L832.252 558.085Z" fill="#00CCC6"/>
<path d="M792.906 771.172C792.906 780.947 784.909 788.945 775.134 788.945H643.621C633.846 788.945 625.848 780.947 625.848 771.172V744.307C625.848 734.532 633.846 726.535 643.621 726.535H775.134C784.909 726.535 792.906 734.532 792.906 744.307V771.172ZM792.906 669.926C792.906 679.7 784.909 687.698 775.134 687.698H643.621C633.846 687.698 625.848 679.7 625.848 669.926V643.061C625.848 633.286 633.846 625.288 643.621 625.288H775.134C784.909 625.288 792.906 633.286 792.906 643.061V669.926Z" fill="#F8FFFF"/>
</svg>
