<svg width="1024" height="1024" viewBox="0 0 1024 1024" fill="none" xmlns="http://www.w3.org/2000/svg">
<rect width="1024" height="1024" fill="white"/>
<path d="M511.5 214.922C570.158 214.922 627.498 232.316 676.27 264.905C725.042 297.493 763.055 343.812 785.502 398.005C807.95 452.197 813.823 511.829 802.379 569.359C790.936 626.89 762.689 679.735 721.212 721.212C679.735 762.689 626.89 790.936 569.36 802.379C511.829 813.823 452.197 807.949 398.005 785.502C343.812 763.055 297.493 725.042 264.905 676.27C232.316 627.498 214.922 570.158 214.922 511.5C214.922 432.843 246.169 357.407 301.788 301.788C357.407 246.169 432.843 214.922 511.5 214.922V214.922ZM511.5 101C430.311 101 350.945 125.075 283.439 170.182C215.932 215.288 163.317 279.399 132.248 354.408C101.178 429.418 93.0486 511.955 108.888 591.585C124.727 671.214 163.823 744.358 221.233 801.767C278.642 859.177 351.786 898.273 431.416 914.112C511.045 929.952 593.583 921.822 668.592 890.753C743.601 859.683 807.712 807.068 852.818 739.562C897.925 672.055 922 592.689 922 511.5C922 402.629 878.751 298.216 801.768 221.233C724.784 144.249 620.372 101 511.5 101V101Z" fill="#F9BBB8"/>
<path d="M511.5 168.974C443.905 168.974 377.828 189.018 321.625 226.572C265.421 264.126 221.616 317.502 195.749 379.952C169.881 442.402 163.113 511.12 176.3 577.416C189.487 643.712 222.038 704.609 269.834 752.406C317.631 800.203 378.528 832.753 444.825 845.94C511.121 859.128 579.839 852.359 642.289 826.492C704.738 800.624 758.115 756.819 795.669 700.616C833.223 644.413 853.267 578.336 853.267 510.741C853.267 420.098 817.26 333.169 753.166 269.075C689.072 204.981 602.142 168.974 511.5 168.974V168.974ZM542.639 506.563V508.842C543.076 513.198 542.555 517.596 541.112 521.729C539.669 525.862 537.338 529.629 534.285 532.765L458.336 612.891C452.596 618.833 444.73 622.251 436.469 622.394C428.208 622.536 420.229 619.391 414.286 613.65C408.344 607.91 404.926 600.044 404.784 591.783C404.641 583.522 407.786 575.542 413.527 569.6L480.741 498.589V350.87C480.742 342.612 484.024 334.693 489.863 328.854C495.703 323.016 503.622 319.736 511.88 319.736C520.138 319.736 528.057 323.016 533.897 328.854C539.736 334.693 543.017 342.612 543.019 350.87L542.639 506.563Z" fill="#F55E55"/>
</svg>
