<svg width="1024" height="1024" viewBox="0 0 1024 1024" fill="none" xmlns="http://www.w3.org/2000/svg">
<rect width="1024" height="1024" fill="white"/>
<path d="M903.932 512C907.851 755.311 755.311 907.695 512 903.932C268.689 907.695 116.306 755.311 120.068 512C116.306 268.689 268.689 116.306 512 120.068C755.311 116.306 907.694 268.689 903.932 512Z" fill="#4ED89D"/>
<path d="M902.834 553.859C890.92 380.625 772.556 274.019 590.386 276.841C395.832 273.706 273.706 395.832 276.841 590.387C273.862 772.557 380.625 890.92 553.702 902.835C758.917 890.293 890.293 758.917 902.834 553.859Z" fill="#44D39C"/>
<path d="M897.504 602.301C874.772 496.323 791.056 431.732 668.773 433.614C522.818 431.262 431.262 522.817 433.614 668.773C431.733 791.055 496.323 874.772 602.145 897.504C763.777 871.166 871.167 763.777 897.504 602.301V602.301Z" fill="#3ACC97"/>
<path d="M883.865 660.307C858.625 615.157 810.652 589.446 747.159 590.386C649.803 588.819 588.819 649.803 590.387 747.159C589.289 810.652 615.157 858.625 660.15 883.865C713.169 868.299 761.432 839.675 800.518 800.616C839.604 761.558 868.262 713.315 883.865 660.307Z" fill="#30C694"/>
<path d="M583.175 718.47L520.466 760.172C517.889 761.891 514.862 762.808 511.765 762.808C508.668 762.808 505.64 761.891 503.064 760.172L440.355 718.47C405.126 694.856 375.594 663.697 353.901 627.253C332.208 590.809 318.898 549.994 314.937 507.768L300.827 359.617C299.78 348.683 302.593 337.727 308.778 328.65C314.963 319.572 324.131 312.946 334.69 309.92L499.145 262.889C507.598 260.471 516.559 260.471 525.012 262.889L689.467 309.92C700.026 312.946 709.194 319.572 715.379 328.65C721.564 337.727 724.377 348.683 723.33 359.617L709.22 507.768C705.187 550.047 691.78 590.896 669.977 627.344C648.173 663.792 618.52 694.922 583.175 718.47V718.47Z" fill="#BDEFD1"/>
<path d="M489.895 574.709C483.66 574.704 477.683 572.223 473.277 567.811L406.806 501.34C402.652 496.882 400.39 490.986 400.498 484.893C400.605 478.801 403.073 472.989 407.382 468.68C411.69 464.372 417.503 461.904 423.595 461.796C429.687 461.689 435.584 463.95 440.041 468.104L489.895 517.958L583.959 423.894C588.417 419.74 594.313 417.479 600.405 417.586C606.497 417.694 612.31 420.162 616.618 424.47C620.927 428.779 623.395 434.591 623.502 440.684C623.61 446.776 621.348 452.672 617.195 457.13L506.513 568.438C502.006 572.621 496.041 574.872 489.895 574.709V574.709Z" fill="white"/>
</svg>
