<svg width="1024" height="1024" viewBox="0 0 1024 1024" fill="none" xmlns="http://www.w3.org/2000/svg">
<rect width="1024" height="1024" fill="white"/>
<path d="M288.245 358.755C298.056 368.566 311.389 374.049 325.313 374C339.237 373.95 352.61 368.371 362.491 358.491C372.371 348.61 377.95 335.237 378 321.313C378.049 307.389 372.566 294.056 362.755 284.245C352.944 274.434 339.611 268.951 325.687 269C311.763 269.05 298.39 274.629 288.509 284.509C278.629 294.39 273.05 307.763 273 321.687C272.951 335.611 278.434 348.944 288.245 358.755V358.755Z" fill="#85A5FF"/>
<path d="M519.476 471.814L527.403 457.146C561.368 394.296 550.477 315.782 499.155 264.489C435.473 200.841 332.223 200.841 268.541 264.489C204.858 328.137 204.858 431.33 268.541 494.977C317.951 544.361 392.758 556.429 454.685 526.589L469.002 519.69L540.584 591.234C552.263 602.906 559.077 614.862 561.051 627.557C562.723 638.322 560.935 647.584 556.689 657.98C556.219 659.127 555.733 660.267 555.233 661.401C554.956 662.033 554.076 664.016 553.974 664.248C553.777 664.693 553.601 665.097 553.442 665.467C555.522 665.772 559.344 665.273 567.705 663.625C579.388 661.323 584.844 660.578 592.553 661.007C604.662 661.679 615.535 666.143 624.484 675.088C633.434 684.033 637.902 694.901 638.574 707.003C639.002 714.706 638.258 720.16 635.954 731.837C633.882 742.334 633.625 745.672 634.499 747.395C635.543 747.098 636.867 746.653 638.887 745.926L641.422 745.007C642.531 744.607 643.429 744.288 644.331 743.977C654.779 740.375 663.281 738.868 673.273 740.174C685.841 741.818 697.505 748.069 708.385 758.943L754.734 805.267L794.32 797.174L803.202 755.387L519.476 471.815L519.476 471.814ZM574.223 463.239L839.163 728.035C843.121 731.99 846.027 736.872 847.617 742.235C849.206 747.598 849.43 753.274 848.267 758.745L836.597 813.644C835.238 820.035 832.043 825.89 827.403 830.492C822.763 835.095 816.88 838.243 810.476 839.553L757.806 850.32C752.365 851.431 746.733 851.178 741.414 849.581C736.096 847.984 731.257 845.093 727.33 841.169L676.721 790.588C672.481 786.35 669.659 784.837 667.463 784.55C665.751 784.326 663.409 784.741 658.933 786.284C658.272 786.513 657.566 786.763 656.646 787.096C656.359 787.199 654.601 787.838 654.074 788.027C645.27 791.199 639.781 792.604 632.486 792.546C621.665 792.461 611.764 788.194 603.49 779.925C594.54 770.98 590.074 760.113 589.401 748.011C588.973 740.307 589.717 734.853 592.021 723.176C594.508 710.578 594.38 708.293 592.821 706.734C591.262 705.176 588.975 705.049 576.369 707.533C564.687 709.836 559.23 710.58 551.522 710.153C539.413 709.48 528.54 705.016 519.591 696.071C511.313 687.798 507.088 677.896 507.401 667.097C507.613 659.796 509.302 654.581 512.998 646.197C513.135 645.888 513.994 643.954 514.227 643.421C514.637 642.487 514.953 641.746 515.232 641.064C516.679 637.521 517.014 635.788 516.803 634.428C516.418 631.956 514.323 628.278 508.922 622.88L459.347 573.332C383.548 602.867 295.969 585.683 236.877 526.624C155.708 445.499 155.708 313.969 236.877 232.844C318.046 151.719 449.648 151.718 530.818 232.844C592.163 294.155 608.187 385.959 574.223 463.24V463.239Z" fill="#2F54EB"/>
</svg>
