<svg width="420" height="420" viewBox="0 0 420 420" fill="none" xmlns="http://www.w3.org/2000/svg">
<path d="M419.618 0.381714H0V420H419.618V0.381714Z" fill="#232323"/>
<path d="M143.649 331.188H273.503C275.149 331.188 276.601 330.559 277.714 329.446C278.778 328.381 279.456 326.881 279.456 325.235V245.135C279.456 243.489 278.778 241.989 277.714 240.924C276.601 239.859 275.149 239.182 273.503 239.182H201.485L200.469 237.536C199.55 235.939 198.872 234.826 198.243 233.809C197.178 232.116 196.21 230.567 194.855 228.195C193.984 226.695 193.258 225.582 192.338 225.049C191.322 224.42 189.725 224.13 187.063 224.13H143.649C142.052 224.13 140.551 224.807 139.487 225.92C138.373 226.985 137.744 228.486 137.744 230.083V325.235C137.744 326.881 138.373 328.381 139.487 329.446C140.551 330.559 142.052 331.188 143.649 331.188ZM273.503 338.012H143.649C140.164 338.012 136.97 336.56 134.647 334.286C132.372 331.962 130.92 328.768 130.92 325.235V230.083C130.92 226.598 132.372 223.404 134.647 221.081C136.97 218.757 140.164 217.354 143.649 217.354H187.063C191.031 217.354 193.693 217.935 195.823 219.241C198.001 220.548 199.308 222.339 200.76 224.807C201.969 226.985 202.937 228.534 204.002 230.276L205.309 232.358H273.503C276.988 232.358 280.182 233.809 282.505 236.133C284.828 238.456 286.232 241.602 286.232 245.135V325.235C286.232 328.768 284.828 331.962 282.505 334.286C280.182 336.56 276.988 338.012 273.503 338.012Z" fill="white"/>
<path fill-rule="evenodd" clip-rule="evenodd" d="M235.993 269.238C223.991 258.542 210.342 250.072 194.08 245.038C190.547 243.974 187.207 243.199 184.061 245.038C180.867 246.877 179.899 250.12 179.028 253.702C175.35 268.899 175.108 284.967 179.028 302.101C179.851 305.731 180.867 308.973 184.061 310.812C187.207 312.652 190.498 311.78 194.08 310.812C209.81 306.505 223.797 298.422 235.993 286.613C238.607 284.048 240.979 281.628 240.979 277.901C240.979 274.223 238.704 271.706 235.993 269.238Z" fill="url(#paint0_linear_324_966)"/>
<path fill-rule="evenodd" clip-rule="evenodd" d="M235.993 269.238C223.991 258.542 210.342 250.072 194.08 245.038C190.547 243.974 187.207 243.199 184.061 245.038C180.867 246.877 179.899 250.12 179.028 253.702C175.35 268.899 175.108 284.967 179.028 302.101C179.851 305.731 180.867 308.973 184.061 310.812C187.207 312.652 190.498 311.78 194.08 310.812C209.81 306.505 223.797 298.422 235.993 286.613C238.607 284.048 240.979 281.628 240.979 277.901C240.979 274.223 238.704 271.706 235.993 269.238Z" fill="url(#paint1_linear_324_966)" fill-opacity="0.5"/>
<path fill-rule="evenodd" clip-rule="evenodd" d="M240.977 291.985C246.785 287.242 252.98 287.774 256.223 293.001L285.795 340.335H198.483C195.773 338.158 193.014 335.931 190.255 333.753C207.292 320.105 224.135 305.827 240.977 291.985Z" fill="url(#paint2_linear_324_966)" fill-opacity="0.8"/>
<path fill-rule="evenodd" clip-rule="evenodd" d="M133.775 340.336L167.315 315.41C170.171 313.281 174.285 312.313 177.866 315.12C188.514 323.493 199.258 331.817 209.761 340.336H133.775Z" fill="url(#paint3_linear_324_966)" fill-opacity="0.1"/>
<path d="M209.808 58.5085C232.701 58.5085 253.512 67.8495 268.564 82.95C283.665 98.002 293.006 118.814 293.006 141.706V178.78H269.145V141.706C269.145 125.396 262.466 110.537 251.722 99.7928C240.929 89.0482 226.118 82.3208 209.808 82.3208C193.449 82.3208 178.639 89.0482 167.846 99.7928C157.102 110.537 150.423 125.396 150.423 141.706V178.78H126.562V141.706C126.562 118.814 135.951 98.002 151.003 82.95C166.104 67.8495 186.915 58.5085 209.808 58.5085Z" fill="white"/>
<path d="M123.611 164.599H295.959C306.607 164.599 316.286 168.907 323.256 175.925C330.274 182.894 334.581 192.574 334.581 203.173V323.251C334.581 333.899 330.274 343.578 323.256 350.548C316.286 357.566 306.607 361.873 295.959 361.873H123.611C112.963 361.873 103.283 357.566 96.3136 350.548C89.2958 343.578 84.9883 333.899 84.9883 323.251V203.173C84.9883 192.574 89.2958 182.894 96.3136 175.925C103.283 168.907 112.963 164.599 123.611 164.599ZM295.959 188.411H123.611C119.545 188.411 115.867 190.105 113.156 192.767C110.494 195.429 108.801 199.156 108.801 203.173V323.251C108.801 327.316 110.494 330.995 113.156 333.705C115.867 336.367 119.545 338.061 123.611 338.061H295.959C300.025 338.061 303.703 336.367 306.413 333.705C309.075 330.995 310.769 327.316 310.769 323.251V203.173C310.769 199.156 309.075 195.429 306.413 192.767C303.703 190.105 300.025 188.411 295.959 188.411Z" fill="white"/>
<defs>
<linearGradient id="paint0_linear_324_966" x1="196.306" y1="309.37" x2="220.859" y2="246.437" gradientUnits="userSpaceOnUse">
<stop stop-color="white"/>
<stop offset="1" stop-color="white"/>
</linearGradient>
<linearGradient id="paint1_linear_324_966" x1="184.812" y1="245.637" x2="215.751" y2="300.753" gradientUnits="userSpaceOnUse">
<stop stop-color="#FFC600"/>
<stop offset="1" stop-color="#FEE400"/>
</linearGradient>
<linearGradient id="paint2_linear_324_966" x1="199.935" y1="335.718" x2="276.163" y2="293.379" gradientUnits="userSpaceOnUse">
<stop stop-color="white"/>
<stop offset="1" stop-color="white"/>
</linearGradient>
<linearGradient id="paint3_linear_324_966" x1="148.619" y1="346.424" x2="194.907" y2="307.299" gradientUnits="userSpaceOnUse">
<stop stop-color="#B0DEFF"/>
<stop offset="0.227451" stop-color="#D7EEFF"/>
<stop offset="0.619608" stop-color="#F9FDFF"/>
<stop offset="1" stop-color="white"/>
</linearGradient>
</defs>
</svg>
