<svg width="512" height="512" viewBox="0 0 512 512" fill="none" xmlns="http://www.w3.org/2000/svg">
<path d="M512 0H0V512H512V0Z" fill="url(#paint0_linear_324_957)"/>
<path d="M175.274 403.636H333.716C335.724 403.636 337.496 402.868 338.854 401.51C340.153 400.21 340.98 398.38 340.98 396.372V298.637C340.98 296.629 340.153 294.799 338.854 293.499C337.496 292.2 335.724 291.373 333.716 291.373H245.844L244.604 289.366C243.482 287.417 242.655 286.059 241.887 284.818C240.588 282.752 239.407 280.862 237.753 277.968C236.69 276.138 235.804 274.779 234.682 274.13C233.442 273.362 231.494 273.008 228.246 273.008H175.274C173.325 273.008 171.494 273.834 170.195 275.193C168.837 276.492 168.069 278.323 168.069 280.271V396.372C168.069 398.38 168.837 400.21 170.195 401.51C171.494 402.868 173.325 403.636 175.274 403.636ZM333.716 411.962H175.274C171.022 411.962 167.124 410.191 164.29 407.415C161.514 404.58 159.743 400.683 159.743 396.372V280.271C159.743 276.019 161.514 272.122 164.29 269.287C167.124 266.453 171.022 264.74 175.274 264.74H228.246C233.088 264.74 236.336 265.449 238.934 267.043C241.592 268.638 243.186 270.823 244.958 273.834C246.434 276.492 247.615 278.382 248.915 280.508L250.509 283.047H333.716C337.968 283.047 341.866 284.818 344.7 287.653C347.535 290.488 349.248 294.326 349.248 298.637V396.372C349.248 400.683 347.535 404.58 344.7 407.415C341.866 410.191 337.968 411.962 333.716 411.962Z" fill="white"/>
<path fill-rule="evenodd" clip-rule="evenodd" d="M287.949 328.046C273.303 314.995 256.65 304.661 236.808 298.519C232.497 297.22 228.422 296.275 224.584 298.519C220.686 300.763 219.505 304.72 218.442 309.09C213.954 327.633 213.659 347.239 218.442 368.144C219.446 372.573 220.686 376.53 224.584 378.774C228.422 381.018 232.438 379.955 236.808 378.774C256.001 373.518 273.067 363.656 287.949 349.247C291.138 346.117 294.031 343.164 294.031 338.617C294.031 334.129 291.256 331.058 287.949 328.046Z" fill="url(#paint1_linear_324_957)"/>
<path fill-rule="evenodd" clip-rule="evenodd" d="M294.03 355.802C301.117 350.014 308.676 350.664 312.632 357.042L348.714 414.797H242.181C238.874 412.139 235.507 409.423 232.141 406.765C252.928 390.112 273.479 372.691 294.03 355.802Z" fill="url(#paint2_linear_324_957)" fill-opacity="0.8"/>
<path fill-rule="evenodd" clip-rule="evenodd" d="M163.226 414.797L204.151 384.384C207.635 381.786 212.654 380.605 217.024 384.03C230.016 394.246 243.126 404.403 255.941 414.797H163.226Z" fill="url(#paint3_linear_324_957)" fill-opacity="0.1"/>
<path d="M255.999 70.9238C283.931 70.9238 309.325 82.3213 327.691 100.746C346.115 119.112 357.513 144.505 357.513 172.438V217.674H328.399V172.438C328.399 152.537 320.25 134.407 307.14 121.297C293.971 108.187 275.9 99.9785 255.999 99.9785C236.038 99.9785 217.968 108.187 204.799 121.297C191.689 134.407 183.539 152.537 183.539 172.438V217.674H154.426V172.438C154.426 144.505 165.882 119.112 184.248 100.746C202.673 82.3213 228.066 70.9238 255.999 70.9238Z" fill="white" fill-opacity="0.9"/>
<path d="M150.824 200.371H361.116C374.108 200.371 385.919 205.627 394.423 214.19C402.986 222.694 408.242 234.504 408.242 247.437V393.951C408.242 406.943 402.986 418.754 394.423 427.257C385.919 435.82 374.108 441.076 361.116 441.076H150.824C137.832 441.076 126.021 435.82 117.518 427.257C108.955 418.754 103.699 406.943 103.699 393.951V247.437C103.699 234.504 108.955 222.694 117.518 214.19C126.021 205.627 137.832 200.371 150.824 200.371ZM361.116 229.426H150.824C145.864 229.426 141.376 231.493 138.069 234.741C134.821 237.989 132.754 242.536 132.754 247.437V393.951C132.754 398.911 134.821 403.399 138.069 406.707C141.376 409.954 145.864 412.021 150.824 412.021H361.116C366.077 412.021 370.565 409.954 373.872 406.707C377.12 403.399 379.187 398.911 379.187 393.951V247.437C379.187 242.536 377.12 237.989 373.872 234.741C370.565 231.493 366.077 229.426 361.116 229.426Z" fill="white"/>
<defs>
<linearGradient id="paint0_linear_324_957" x1="512" y1="512" x2="0" y2="0" gradientUnits="userSpaceOnUse">
<stop stop-color="#F4BA33"/>
<stop offset="1" stop-color="#DC3D41"/>
</linearGradient>
<linearGradient id="paint1_linear_324_957" x1="239.524" y1="377.014" x2="269.483" y2="300.226" gradientUnits="userSpaceOnUse">
<stop stop-color="#FFD6B0" stop-opacity="0.46"/>
<stop offset="0.46875" stop-color="#F7E7D8"/>
<stop offset="1" stop-color="white"/>
</linearGradient>
<linearGradient id="paint2_linear_324_957" x1="243.952" y1="409.163" x2="336.963" y2="357.502" gradientUnits="userSpaceOnUse">
<stop stop-color="#FFD6B0" stop-opacity="0.8"/>
<stop offset="1" stop-color="white"/>
</linearGradient>
<linearGradient id="paint3_linear_324_957" x1="181.338" y1="422.226" x2="237.817" y2="374.487" gradientUnits="userSpaceOnUse">
<stop stop-color="#B0DEFF"/>
<stop offset="0.227451" stop-color="#D7EEFF"/>
<stop offset="0.619608" stop-color="#F9FDFF"/>
<stop offset="1" stop-color="white"/>
</linearGradient>
</defs>
</svg>
