<svg width="1024" height="1024" viewBox="0 0 1024 1024" fill="none" xmlns="http://www.w3.org/2000/svg">
<path d="M1024 0H0V1024H1024V0Z" fill="url(#paint0_linear_317_943)"/>
<path opacity="0.9" d="M350.548 807.271H667.433C671.448 807.271 674.992 805.736 677.708 803.019C680.307 800.421 681.96 796.759 681.96 792.744V597.274C681.96 593.259 680.307 589.597 677.708 586.999C674.992 584.4 671.448 582.747 667.433 582.747H491.687L489.207 578.731C486.963 574.834 485.31 572.117 483.774 569.637C481.176 565.503 478.814 561.724 475.507 555.936C473.381 552.275 471.609 549.558 469.365 548.259C466.885 546.724 462.987 546.015 456.491 546.015H350.548C346.65 546.015 342.989 547.669 340.391 550.385C337.674 552.984 336.139 556.645 336.139 560.543V792.744C336.139 796.759 337.674 800.421 340.391 803.019C342.989 805.736 346.65 807.271 350.548 807.271ZM667.433 823.924H350.548C342.044 823.924 334.249 820.381 328.58 814.83C323.029 809.161 319.485 801.366 319.485 792.744V560.543C319.485 552.039 323.029 544.244 328.58 538.574C334.249 532.905 342.044 529.48 350.548 529.48H456.491C466.176 529.48 472.672 530.897 477.869 534.086C483.184 537.275 486.373 541.645 489.916 547.669C492.868 552.984 495.231 556.763 497.829 561.015L501.018 566.094H667.433C675.937 566.094 683.732 569.637 689.401 575.306C695.07 580.975 698.495 588.652 698.495 597.274V792.744C698.495 801.366 695.07 809.161 689.401 814.83C683.732 820.381 675.937 823.924 667.433 823.924Z" fill="white"/>
<path fill-rule="evenodd" clip-rule="evenodd" d="M575.898 656.093C546.607 629.991 513.3 609.322 473.616 597.039C464.994 594.44 456.844 592.551 449.167 597.039C441.372 601.527 439.01 609.44 436.884 618.18C427.908 655.266 427.317 694.478 436.884 736.289C438.892 745.147 441.372 753.06 449.167 757.548C456.844 762.036 464.876 759.91 473.616 757.548C512.001 747.036 546.134 727.312 575.898 698.494C582.276 692.234 588.063 686.329 588.063 677.234C588.063 668.258 582.512 662.116 575.898 656.093Z" fill="url(#paint1_linear_317_943)"/>
<path opacity="0.75" fill-rule="evenodd" clip-rule="evenodd" d="M588.06 711.603C602.233 700.029 617.351 701.328 625.264 714.084L697.429 829.594H484.361C477.747 824.279 471.015 818.846 464.283 813.531C505.857 780.224 546.959 745.382 588.06 711.603Z" fill="white"/>
<path opacity="0.35" fill-rule="evenodd" clip-rule="evenodd" d="M326.452 829.594L408.301 768.768C415.269 763.571 425.308 761.209 434.048 768.06C460.032 788.492 486.252 808.807 511.882 829.594H326.452Z" fill="white"/>
<path d="M512.146 161C568.012 161 618.798 183.795 655.53 220.645C692.38 257.376 715.175 308.163 715.175 364.028V454.499H656.947V364.028C656.947 324.226 640.648 287.967 614.428 261.746C588.09 235.526 551.949 219.109 512.146 219.109C472.226 219.109 436.085 235.526 409.746 261.746C383.526 287.967 367.227 324.226 367.227 364.028V454.499H309V364.028C309 308.163 331.913 257.376 368.645 220.645C405.495 183.795 456.281 161 512.146 161Z" fill="white"/>
<path d="M301.648 400.742H722.233C748.216 400.742 771.838 411.254 788.846 428.38C805.971 445.387 816.483 469.009 816.483 494.875V787.902C816.483 813.885 805.971 837.507 788.846 854.515C771.838 871.64 748.216 882.152 722.233 882.152H301.648C275.665 882.152 252.043 871.64 235.035 854.515C217.91 837.507 207.398 813.885 207.398 787.902V494.875C207.398 469.009 217.91 445.387 235.035 428.38C252.043 411.254 275.665 400.742 301.648 400.742ZM722.233 458.852H301.648C291.727 458.852 282.751 462.985 276.137 469.481C269.641 475.977 265.507 485.072 265.507 494.875V787.902C265.507 797.823 269.641 806.799 276.137 813.413C282.751 819.909 291.727 824.043 301.648 824.043H722.233C732.154 824.043 741.13 819.909 747.744 813.413C754.24 806.799 758.374 797.823 758.374 787.902V494.875C758.374 485.072 754.24 475.977 747.744 469.481C741.13 462.985 732.154 458.852 722.233 458.852Z" fill="white"/>
<defs>
<linearGradient id="paint0_linear_317_943" x1="224" y1="-9.19681e-06" x2="812.5" y2="1024" gradientUnits="userSpaceOnUse">
<stop stop-color="#1D6FF0"/>
<stop offset="1" stop-color="#19C7FA"/>
</linearGradient>
<linearGradient id="paint1_linear_317_943" x1="451" y1="598.5" x2="526.5" y2="733" gradientUnits="userSpaceOnUse">
<stop stop-color="#FFC600"/>
<stop offset="1" stop-color="#FEE400"/>
</linearGradient>
</defs>
</svg>
