<svg width="1024" height="1024" viewBox="0 0 1024 1024" fill="none" xmlns="http://www.w3.org/2000/svg">
<rect width="1024" height="1024" fill="white"/>
<path d="M273.425 388.15L550.825 661.9C565.425 676.5 565.425 698.4 550.825 713L450.45 811.55C435.85 826.15 413.95 826.15 399.35 811.55L121.95 537.8C107.35 523.2 107.35 501.3 121.95 486.7L222.325 388.15C235.1 373.55 258.825 373.55 273.425 388.15V388.15Z" fill="#185ABD"/>
<path d="M903.05 362.6L450.45 811.55C435.85 826.15 413.95 826.15 399.35 811.55L298.975 713C284.375 698.4 284.375 676.5 298.975 661.9L751.575 212.95C766.175 198.35 788.075 198.35 802.675 212.95L903.05 311.5C917.65 326.1 917.65 348 903.05 362.6V362.6Z" fill="#41A5EE"/>
</svg>
