<?xml version="1.0" encoding="UTF-8"?>
<!--Generator: Apple Native CoreSVG 175-->
<!DOCTYPE svg
PUBLIC "-//W3C//DTD SVG 1.1//EN"
       "http://www.w3.org/Graphics/SVG/1.1/DTD/svg11.dtd">
<svg version="1.1" xmlns="http://www.w3.org/2000/svg" xmlns:xlink="http://www.w3.org/1999/xlink" width="27.8906" height="27.9043" viewBox="0 0 27.8906 27.9043" fill="rgba(0,0,0,0.85)">
 <g>
  <rect height="27.9043" opacity="0" width="27.8906" x="0" y="0"/>
  <path d="M13.9453 27.8906Q16.8027 27.8906 19.3252 26.7969Q21.8477 25.7031 23.7754 23.7754Q25.7031 21.8477 26.7969 19.3252Q27.8906 16.8027 27.8906 13.9453Q27.8906 11.0879 26.7969 8.56543Q25.7031 6.04297 23.7754 4.11523Q21.8477 2.1875 19.3184 1.09375Q16.7891 0 13.9316 0Q11.0742 0 8.55176 1.09375Q6.0293 2.1875 4.1084 4.11523Q2.1875 6.04297 1.09375 8.56543Q0 11.0879 0 13.9453Q0 16.8027 1.09375 19.3252Q2.1875 21.8477 4.11523 23.7754Q6.04297 25.7031 8.56543 26.7969Q11.0879 27.8906 13.9453 27.8906ZM7.27344 13.959Q7.27344 13.4258 7.61523 13.0908Q7.95703 12.7559 8.49023 12.7559L12.7695 12.7559L12.7695 8.47656Q12.7695 7.94336 13.0908 7.60156Q13.4121 7.25977 13.9316 7.25977Q14.4648 7.25977 14.7998 7.60156Q15.1348 7.94336 15.1348 8.47656L15.1348 12.7559L19.4277 12.7559Q19.9609 12.7559 20.2959 13.0908Q20.6309 13.4258 20.6309 13.959Q20.6309 14.4785 20.2891 14.7998Q19.9473 15.1211 19.4277 15.1211L15.1348 15.1211L15.1348 19.4141Q15.1348 19.9473 14.7998 20.2822Q14.4648 20.6172 13.9316 20.6172Q13.4121 20.6172 13.0908 20.2822Q12.7695 19.9473 12.7695 19.4141L12.7695 15.1211L8.49023 15.1211Q7.95703 15.1211 7.61523 14.7998Q7.27344 14.4785 7.27344 13.959Z" />
 </g>
</svg>
