<?xml version="1.0" encoding="UTF-8"?>
<svg xmlns="http://www.w3.org/2000/svg" xmlns:xlink="http://www.w3.org/1999/xlink" width="375pt" height="374.999991pt" viewBox="0 0 375 374.999991" version="1.2">
<g id="surface1">
<path style=" stroke:none;fill-rule:nonzero;fill:rgb(60.389709%,65.489197%,69.799805%);fill-opacity:1;" d="M 187.5 212.304688 L 187.5 190.277344 L 65.761719 190.277344 L 65.761719 258.851562 L 187.5 258.851562 Z M 65.761719 258.851562 L 187.5 332.734375 L 187.5 258.851562 Z M 65.761719 116.394531 L 187.5 116.394531 L 187.5 190.277344 L 65.761719 190.277344 Z M 65.761719 116.394531 "/>
<path style=" stroke:none;fill-rule:nonzero;fill:rgb(78.42865%,81.568909%,84.709167%);fill-opacity:1;" d="M 187.5 190.277344 L 187.5 258.851562 L 309.238281 258.851562 L 309.238281 190.277344 Z M 187.5 116.394531 L 309.238281 116.394531 L 309.238281 190.277344 L 187.5 190.277344 Z M 187.5 332.734375 L 309.238281 258.851562 L 187.5 258.851562 Z M 187.5 332.734375 "/>
<path style=" stroke:none;fill-rule:nonzero;fill:rgb(93.728638%,94.119263%,94.898987%);fill-opacity:1;" d="M 187.5 190.277344 L 65.761719 116.394531 L 187.5 42.507812 L 309.238281 116.394531 Z M 187.5 190.277344 "/>
</g>
</svg>
